<svg xmlns="http://www.w3.org/2000/svg" viewBox="0 0 183.59 52.33"><defs><style>.cls-1,.cls-3,.cls-4{fill:#1e5da8;}.cls-2{fill:none;}.cls-2,.cls-3,.cls-4{stroke:#1e5da8;stroke-miterlimit:10;stroke-width:0.25px;}.cls-4{opacity:0.54;}.cls-5{font-size:20px;fill:#1a2e44;}.cls-5,.cls-6{font-family:Poppins-SemiBold, Poppins;font-weight:600;}.cls-6{font-size:8px;fill:#aaa;}</style></defs><title>Asset 1</title><g id="Layer_2" data-name="Layer 2"><g id="Layer_2-2" data-name="Layer 2"><polygon class="cls-1" points="17.78 0.21 0.17 10.2 0.13 30.54 11.64 36.8 11.68 15.09 7.43 17.46 7.36 30.46 3.48 28.44 3.61 12.29 17.78 4.11 17.78 0.21"/><polygon class="cls-2" points="17.78 0.21 0.17 10.2 0.13 30.54 11.64 36.8 11.68 15.09 7.43 17.46 7.36 30.46 3.48 28.44 3.61 12.29 17.78 4.11 17.78 0.21"/><polygon class="cls-1" points="17.71 0.21 35.31 10.2 35.36 30.54 23.84 36.8 23.8 15.09 28.06 17.46 28.12 30.46 32.01 28.44 31.87 12.29 17.71 4.11 17.71 1.1 17.71 0.93 17.71 0.21"/><polygon class="cls-2" points="17.71 0.21 35.31 10.2 35.36 30.54 23.84 36.8 23.8 15.09 28.06 17.46 28.12 30.46 32.01 28.44 31.87 12.29 17.71 4.11 17.71 1.1 17.71 0.93 17.71 0.21"/><polygon class="cls-3" points="17.78 8.83 13.47 11.43 13.33 37.94 17.78 40.37 17.78 8.83"/><polygon class="cls-4" points="17.77 8.83 22.08 11.43 22.21 37.94 17.77 40.37 17.77 8.83"/><text class="cls-5" transform="translate(43.81 21.61)">amb<tspan class="cls-1" x="48.08" y="0">Tender</tspan></text><text class="cls-6" transform="translate(45.97 31.18)">Your dream home</text></g></g></svg>