<svg xmlns="http://www.w3.org/2000/svg" viewBox="0 0 162.47 40.58"><defs><style>.cls-1{fill:#1e5da8;}.cls-2{opacity:0.54;}.cls-3{fill:#1a2e44;}.cls-4{fill:#aaa;}</style></defs><title>Asset 4</title><g id="Layer_2" data-name="Layer 2"><g id="Layer_2-2" data-name="Layer 2"><polygon class="cls-1" points="17.78 0.21 0.17 10.2 0.13 30.54 11.64 36.8 11.68 15.09 7.43 17.46 7.36 30.46 3.48 28.44 3.61 12.29 17.78 4.11 17.78 0.21"/><path class="cls-1" d="M11.77,37,0,30.61v-.07L.05,10.13l.06,0L17.9,0V4.18L3.74,12.36l-.14,16,3.63,1.89L7.3,17.39l4.5-2.51ZM.25,30.46l11.27,6.13,0-21.29-4,2.23L7.48,30.66,3.35,28.51v-.07l.14-16.22.06,0L17.65,4V.43L.3,10.27Z"/><polygon class="cls-1" points="17.71 0.21 35.31 10.2 35.36 30.54 23.84 36.8 23.8 15.09 28.06 17.46 28.12 30.46 32.01 28.44 31.87 12.29 17.71 4.11 17.71 1.1 17.71 0.93 17.71 0.21"/><path class="cls-1" d="M23.71,37V36.8l0-21.92,4.5,2.51v.07l.07,12.79,3.63-1.89-.13-16L17.58,4.18V0L35.44,10.13v.07l0,20.41-.06,0Zm.22-21.71,0,21.29,11.27-6.13,0-20.19L17.83.43V4L32,12.22v.07l.13,16.22L28,30.66l-.07-13.13Z"/><polygon class="cls-1" points="17.78 8.83 13.47 11.43 13.33 37.94 17.78 40.37 17.78 8.83"/><path class="cls-1" d="M17.9,40.58,13.21,38v-.08l.13-26.58L17.9,8.61Zm-4.44-2.71,4.19,2.29V9.05L13.59,11.5Z"/><g class="cls-2"><polygon class="cls-1" points="17.77 8.83 22.08 11.43 22.21 37.94 17.77 40.37 17.77 8.83"/><path class="cls-1" d="M17.65,40.58v-32l4.55,2.75v.07L22.34,38l-.07,0ZM17.9,9.05V40.16l4.19-2.29L22,11.5Z"/></g><path class="cls-3" d="M49.53,10.34a4.38,4.38,0,0,1,3.66,1.76V10.52H56V21.61H53.19V20a4.37,4.37,0,0,1-3.68,1.8c-2.8,0-5-2.3-5-5.76S46.71,10.34,49.53,10.34Zm.72,2.46A3,3,0,0,0,47.33,16a3,3,0,0,0,2.92,3.3,3,3,0,0,0,2.94-3.26A3,3,0,0,0,50.25,12.8Z"/><path class="cls-3" d="M74.25,15.49c0-1.77-1-2.69-2.46-2.69a2.37,2.37,0,0,0-2.48,2.69v6.12h-2.8V15.49c0-1.77-1-2.69-2.46-2.69a2.37,2.37,0,0,0-2.5,2.69v6.12h-2.8V10.52h2.8v1.34a4,4,0,0,1,3.26-1.5,4.24,4.24,0,0,1,3.9,2.12,4.39,4.39,0,0,1,3.8-2.12c2.66,0,4.54,1.68,4.54,4.75v6.5h-2.8Z"/><path class="cls-3" d="M86.17,10.34c2.84,0,5.06,2.22,5.06,5.69S89,21.79,86.17,21.79A4.36,4.36,0,0,1,82.51,20v1.58h-2.8V6.8h2.8v5.34A4.32,4.32,0,0,1,86.17,10.34Zm-.74,2.46a3,3,0,0,0-2.92,3.27,3,3,0,0,0,2.92,3.26A3,3,0,0,0,88.37,16,3,3,0,0,0,85.43,12.8Z"/><path class="cls-1" d="M92.53,7.64h10.24V9.9H99.05V21.61h-2.8V9.9H92.53Z"/><path class="cls-1" d="M109.65,21.79a5.37,5.37,0,0,1-5.56-5.72c0-3.51,2.28-5.73,5.56-5.73a5.2,5.2,0,0,1,5.46,5.49,6.63,6.63,0,0,1-.08,1.08h-8.1a2.59,2.59,0,0,0,2.66,2.56,2.28,2.28,0,0,0,2.22-1.34h3A5.15,5.15,0,0,1,109.65,21.79ZM107,15h5.26a2.46,2.46,0,0,0-2.64-2.39A2.57,2.57,0,0,0,107,15Z"/><path class="cls-1" d="M124.91,15.49c0-1.78-1-2.75-2.46-2.75s-2.5,1-2.5,2.75v6.12h-2.8V10.52H120V11.9a4.14,4.14,0,0,1,3.34-1.54c2.58,0,4.42,1.68,4.42,4.75v6.5h-2.8Z"/><path class="cls-1" d="M134.73,10.34a4.55,4.55,0,0,1,3.62,1.72V6.8h2.84V21.61h-2.84V20a4.19,4.19,0,0,1-3.64,1.82c-2.82,0-5.06-2.3-5.06-5.76S131.89,10.34,134.73,10.34Zm.7,2.46A3,3,0,0,0,132.51,16a3,3,0,0,0,2.92,3.3,3,3,0,0,0,2.94-3.26A3,3,0,0,0,135.43,12.8Z"/><path class="cls-1" d="M148.77,21.79a5.37,5.37,0,0,1-5.56-5.72c0-3.51,2.28-5.73,5.56-5.73a5.2,5.2,0,0,1,5.46,5.49,6.63,6.63,0,0,1-.08,1.08h-8.1a2.59,2.59,0,0,0,2.66,2.56,2.28,2.28,0,0,0,2.22-1.34h3A5.15,5.15,0,0,1,148.77,21.79ZM146.07,15h5.26a2.46,2.46,0,0,0-2.64-2.39A2.57,2.57,0,0,0,146.07,15Z"/><path class="cls-1" d="M159.07,21.61h-2.8V10.52h2.8v1.72a3.84,3.84,0,0,1,3.4-1.88V13.3h-.74c-1.66,0-2.66.64-2.66,2.78Z"/><path class="cls-4" d="M46.06,28.6h1.27l1.2,2.55,1.19-2.55H51l-1.88,3.64v1.94H48V32.24Z"/><path class="cls-4" d="M53.58,34.25A2.17,2.17,0,0,1,51.33,32a2.28,2.28,0,1,1,2.25,2.28Zm0-1A1.18,1.18,0,0,0,54.74,32a1.15,1.15,0,1,0-2.27,0C52.47,32.85,53,33.28,53.58,33.28Z"/><path class="cls-4" d="M60.9,34.18H59.77v-.56a1.63,1.63,0,0,1-1.32.62,1.7,1.7,0,0,1-1.77-1.89v-2.6H57.8v2.44c0,.71.39,1.1,1,1.1s1-.39,1-1.1V29.75H60.9Z"/><path class="cls-4" d="M63.13,34.18H62V29.75h1.12v.69a1.54,1.54,0,0,1,1.35-.75v1.17h-.29c-.67,0-1.06.26-1.06,1.12Z"/><path class="cls-4" d="M68.89,29.68a1.79,1.79,0,0,1,1.44.69v-2.1h1.14v5.91H70.33v-.65a1.66,1.66,0,0,1-1.45.72,2.1,2.1,0,0,1-2-2.3A2.08,2.08,0,0,1,68.89,29.68Zm.28,1A1.18,1.18,0,0,0,68,32a1.21,1.21,0,0,0,1.17,1.32,1.31,1.31,0,0,0,0-2.6Z"/><path class="cls-4" d="M73.69,34.18H72.57V29.75h1.12v.69A1.53,1.53,0,0,1,75,29.69v1.17h-.29c-.67,0-1.06.26-1.06,1.12Z"/><path class="cls-4" d="M77.73,34.25a2.29,2.29,0,0,1,0-4.57,2.08,2.08,0,0,1,2.19,2.19,2,2,0,0,1,0,.43H76.65a1,1,0,0,0,1.06,1,.92.92,0,0,0,.89-.54h1.2A2,2,0,0,1,77.73,34.25Zm-1.08-2.7h2.11a1,1,0,0,0-1.06-.95A1,1,0,0,0,76.65,31.55Z"/><path class="cls-4" d="M82.47,29.68a1.74,1.74,0,0,1,1.46.71v-.64h1.13v4.43H83.93v-.64a1.75,1.75,0,0,1-1.47.71,2.09,2.09,0,0,1-2-2.3A2.07,2.07,0,0,1,82.47,29.68Zm.29,1A1.18,1.18,0,0,0,81.59,32a1.21,1.21,0,0,0,1.17,1.32,1.31,1.31,0,0,0,0-2.6Z"/><path class="cls-4" d="M92.35,31.74a1,1,0,1,0-2,0v2.44H89.26V31.74a1,1,0,1,0-2,0v2.44H86.16V29.75h1.12v.54a1.6,1.6,0,0,1,1.3-.6,1.7,1.7,0,0,1,1.56.85,1.74,1.74,0,0,1,1.52-.85,1.72,1.72,0,0,1,1.81,1.89v2.6H92.35Z"/><path class="cls-4" d="M96.45,28.27h1.11v2a1.71,1.71,0,0,1,1.38-.62,1.69,1.69,0,0,1,1.73,1.89v2.6H99.55V31.74c0-.72-.39-1.1-1-1.1a1,1,0,0,0-1,1.1v2.44H96.45Z"/><path class="cls-4" d="M103.7,34.25A2.17,2.17,0,0,1,101.45,32a2.28,2.28,0,1,1,2.25,2.28Zm0-1A1.18,1.18,0,0,0,104.86,32a1.16,1.16,0,0,0-1.14-1.31A1.15,1.15,0,0,0,102.59,32C102.59,32.85,103.1,33.28,103.7,33.28Z"/><path class="cls-4" d="M113,31.74a1,1,0,1,0-2,0v2.44h-1.12V31.74a1,1,0,1,0-2,0v2.44h-1.12V29.75H108v.54a1.6,1.6,0,0,1,1.3-.6,1.7,1.7,0,0,1,1.56.85,1.74,1.74,0,0,1,1.52-.85,1.72,1.72,0,0,1,1.81,1.89v2.6H113Z"/><path class="cls-4" d="M117.16,34.25a2.29,2.29,0,0,1,0-4.57,2.08,2.08,0,0,1,2.18,2.19,3,3,0,0,1,0,.43h-3.24a1,1,0,0,0,1.06,1,.91.91,0,0,0,.89-.54h1.21A2.06,2.06,0,0,1,117.16,34.25Zm-1.08-2.7h2.1a1,1,0,0,0-1.06-.95A1,1,0,0,0,116.08,31.55Z"/></g></g></svg>