<?xml version="1.0" encoding="utf-8"?>
<!-- Generator: Adobe Illustrator 23.0.0, SVG Export Plug-In . SVG Version: 6.00 Build 0)  -->
<svg version="1.1" xmlns="http://www.w3.org/2000/svg" xmlns:xlink="http://www.w3.org/1999/xlink" x="0px" y="0px"
	 viewBox="0 0 595.28 841.89" enable-background="new 0 0 595.28 841.89" xml:space="preserve">
<g id="Layer_1">
</g>
<g id="Layer_2">
	<g>
		<g>
			<path fill="none" d="M178.87,405.47"/>
		</g>
		<g>
			<polygon fill="#1E5DA8" points="196.47,395.41 178.87,405.4 178.82,425.74 190.34,431.99 190.38,410.29 186.12,412.66 
				186.06,425.66 182.18,423.64 182.31,407.49 196.47,399.31 			"/>
		</g>
		<g>
			<polygon fill="#1E5DA8" points="196.4,395.41 214.01,405.4 214.06,425.74 202.54,431.99 202.5,410.29 206.75,412.66 
				206.82,425.66 210.7,423.64 210.57,407.49 196.4,399.31 196.4,396.3 196.4,396.13 			"/>
		</g>
		<g>
			<polygon fill="#1E5DA8" points="196.47,404.03 192.17,406.63 192.03,433.14 196.47,435.57 			"/>
		</g>
		<g opacity="0.54">
			<polygon fill="#1E5DA8" points="196.47,404.03 200.78,406.63 200.91,433.14 196.47,435.57 			"/>
		</g>
		<g>
			<path fill="#1E5DA8" d="M237.58,435.57"/>
		</g>
	</g>
	<g>
		<path fill="#2D2D2D" d="M230.72,418.34h-7.44l-1.54,3.5h-2.06l6.34-14H228l6.36,14h-2.1L230.72,418.34z M230.02,416.74l-3.02-6.86
			l-3.02,6.86H230.02z"/>
		<path fill="#2D2D2D" d="M249.42,421.85l-0.02-10.2l-5.06,8.5h-0.92l-5.06-8.44v10.14h-1.92v-14h1.64l5.84,9.84l5.76-9.84h1.64
			l0.02,14H249.42z"/>
		<path fill="#2D2D2D" d="M267.58,418.06c0,2.4-1.82,3.78-5.36,3.78h-6.68v-14h6.28c3.22,0,5.02,1.36,5.02,3.62
			c0,1.52-0.78,2.58-1.88,3.12C266.54,415.02,267.58,416.2,267.58,418.06z M257.54,409.46v4.48h4.1c2.04,0,3.2-0.76,3.2-2.24
			c0-1.48-1.16-2.24-3.2-2.24H257.54z M265.56,417.91c0-1.62-1.2-2.34-3.42-2.34h-4.6v4.66h4.6
			C264.36,420.23,265.56,419.53,265.56,417.91z"/>
		<path fill="#1E5DA8" d="M278.84,409.59h-4.8v-1.74h11.58v1.74h-4.8v12.26h-1.98V409.59z"/>
		<path fill="#1E5DA8" d="M297.96,420.11v1.74H287.8v-14h9.88v1.74h-7.88v4.3h7.02v1.7h-7.02v4.52H297.96z"/>
		<path fill="#1E5DA8" d="M313.24,407.85v14h-1.64l-8.4-10.44v10.44h-2v-14h1.64l8.4,10.44v-10.44H313.24z"/>
		<path fill="#1E5DA8" d="M317.44,407.85h5.9c1.48,0,2.79,0.29,3.94,0.88c1.15,0.59,2.04,1.41,2.67,2.47
			c0.63,1.06,0.95,2.28,0.95,3.65s-0.32,2.59-0.95,3.65c-0.63,1.06-1.52,1.88-2.67,2.47c-1.15,0.59-2.46,0.88-3.94,0.88h-5.9V407.85
			z M323.22,420.11c1.13,0,2.13-0.22,2.99-0.66c0.86-0.44,1.52-1.06,1.99-1.85s0.7-1.71,0.7-2.75s-0.23-1.96-0.7-2.75
			s-1.13-1.41-1.99-1.85c-0.86-0.44-1.86-0.66-2.99-0.66h-3.78v10.52H323.22z"/>
		<path fill="#1E5DA8" d="M344.12,420.11v1.74h-10.16v-14h9.88v1.74h-7.88v4.3h7.02v1.7h-7.02v4.52H344.12z"/>
		<path fill="#1E5DA8" d="M356.72,421.85l-3.02-4.3c-0.37,0.03-0.67,0.04-0.88,0.04h-3.46v4.26h-2v-14h5.46
			c1.81,0,3.24,0.43,4.28,1.3c1.04,0.87,1.56,2.06,1.56,3.58c0,1.08-0.27,2-0.8,2.76c-0.53,0.76-1.29,1.31-2.28,1.66l3.32,4.7
			H356.72z M355.66,415.07c0.67-0.55,1-1.33,1-2.34c0-1.01-0.33-1.79-1-2.33s-1.63-0.81-2.9-0.81h-3.4v6.3h3.4
			C354.03,415.89,354.99,415.61,355.66,415.07z"/>
	</g>
</g>
<g id="Layer_3">
</g>
</svg>
