<?xml version="1.0" encoding="utf-8"?>
<!-- Generator: Adobe Illustrator 23.0.0, SVG Export Plug-In . SVG Version: 6.00 Build 0)  -->
<svg version="1.1" id="Layer_1" xmlns="http://www.w3.org/2000/svg" xmlns:xlink="http://www.w3.org/1999/xlink" x="0px" y="0px"
	 viewBox="0 0 512 512" style="enable-background:new 0 0 512 512;" xml:space="preserve">
<style type="text/css">
	.st0{fill:#F2351C;stroke:#F2351C;stroke-width:13;stroke-miterlimit:10;}
</style>
<g>
	<g>
		<path class="st0" d="M334.4,238.2c32.6-23.1,53.8-60.5,53.8-102.7c0-70-58.5-127-130.5-127s-130.5,57-130.5,127
			c0,42.1,21.2,79.6,53.8,102.7C100,268.4,42.4,344.8,42.4,434c0,38.5,32.2,69.9,71.8,69.9h287.1c39.6,0,71.8-31.3,71.8-69.9
			C473,344.8,415.4,268.4,334.4,238.2z M166.4,135.6c0-49,41-88.9,91.3-88.9S349,86.5,349,135.6s-41,88.9-91.3,88.9
			S166.4,184.6,166.4,135.6z M401.2,465.8H114.2c-18,0-32.6-14.2-32.6-31.8c0-94.5,79-171.5,176.2-171.5S433.9,339.5,433.9,434
			C433.9,451.5,419.2,465.8,401.2,465.8z"/>
	</g>
</g>
</svg>
