<svg height="512pt" viewBox="0 -48 512.00025 512" width="512pt" xmlns="http://www.w3.org/2000/svg"><path d="m382.714844 24.007812c0 13.238282-10.738282 23.988282-23.992188 23.988282h-39.8125v-47.996094h39.8125c6.636719 0 12.632813 2.695312 16.972656 7.035156 4.339844 4.339844 7.019532 10.335938 7.019532 16.972656zm0 0" fill="#56a6e8"/><path d="m382.714844 24.007812v260.667969c0 13.238281-10.738282 23.988281-23.992188 23.988281h-358.722656v-236.679687c0-6.632813 2.679688-12.632813 7.019531-16.96875 4.335938-4.339844 10.335938-7.019531 16.96875-7.019531h334.734375c13.257813 0 23.992188-10.75 23.992188-23.988282zm0 0" fill="#7dcdf9"/><path d="m63.804688 95.992188v258.433593h-39.816407c-13.253906 0-23.988281-10.734375-23.988281-23.988281v-258.453125c0 13.257813 10.734375 24.007813 23.988281 24.007813zm0 0" fill="#c2f4ff"/><path d="m247.890625 157.011719h-13.675781c-1.988282 0-3.898438.792969-5.304688 2.199219l-17.882812 17.886718c-2.929688 2.929688-2.929688 7.675782 0 10.605469 2.925781 2.929687 7.675781 2.929687 10.605468 0l15.6875-15.691406h3.070313v41.488281h-63.460937v-41.488281h21.554687c4.140625 0 7.5-3.355469 7.5-7.5 0-4.140625-3.359375-7.5-7.5-7.5h-21.554687v-45.339844c0-4.144531-3.359376-7.5-7.5-7.5h-51.832032c-4.140625 0-7.5 3.355469-7.5 7.5v109.328125c0 4.140625 3.359375 7.5 7.5 7.5h130.292969c4.140625 0 7.5-3.359375 7.5-7.5v-56.488281c0-4.140625-3.359375-7.5-7.5-7.5zm-122.792969 56.488281v-94.328125h36.832032v37.839844h-22.285157c-4.140625 0-7.5 3.359375-7.5 7.5 0 4.144531 3.359375 7.5 7.5 7.5h22.285157v41.488281zm0 0" fill="#e6f6fc"/><path d="m296.953125 238.832031h-1.457031v-134.757812h1.457031c4.144531 0 7.5-3.355469 7.5-7.5 0-4.140625-3.355469-7.5-7.5-7.5h-17.917969c-4.144531 0-7.5 3.359375-7.5 7.5 0 4.144531 3.355469 7.5 7.5 7.5h1.460938v134.757812h-1.460938c-4.144531 0-7.5 3.359375-7.5 7.5s3.355469 7.5 7.5 7.5h17.917969c4.144531 0 7.5-3.359375 7.5-7.5s-3.355469-7.5-7.5-7.5zm0 0" fill="#e6f6fc"/><path d="m502.953125 207.945312-187.464844 187.46875-49.773437 19.90625c-8.679688 3.472657-17.289063-5.136718-13.816406-13.816406l19.90625-49.773437 187.46875-187.464844c12.0625-12.0625 31.617187-12.0625 43.679687 0s12.0625 31.621094 0 43.679687zm0 0" fill="#ffdc61"/><path d="m486.601562 191.59375-187.464843 187.46875-44.183594 25.496094c-1.363281.789062-2.652344 1.265625-3.832031 1.480468.355468 6.8125 7.449218 12.140626 14.59375 9.28125l49.769531-19.90625 187.46875-187.46875c12.0625-12.058593 12.0625-31.617187 0-43.679687-1.730469-1.730469-3.617187-3.210937-5.613281-4.445313 3.761718 8.300782-.40625 21.445313-10.738282 31.773438zm0 0" fill="#f7ad48"/><path d="m251.898438 401.503906 19.90625-49.773437 43.683593 43.683593-49.773437 19.90625c-8.679688 3.472657-17.289063-5.136718-13.816406-13.816406zm0 0" fill="#7d8eb0"/><path d="m251.121094 406.039062c.550781 7.285157 7.757812 12.015626 14.59375 9.28125l49.773437-19.90625-16.351562-16.351562c-45.40625 25.945312-44.695313 26.375-48.015625 26.976562zm0 0" fill="#516789"/><path d="m502.953125 164.265625c12.0625 12.0625 12.0625 31.621094 0 43.679687l-7.277344 7.28125-43.683593-43.683593 7.28125-7.277344c12.0625-12.0625 31.617187-12.0625 43.679687 0zm0 0" fill="#f492ca"/><path d="m497.34375 159.820312c3.757812 8.300782-.410156 21.445313-10.742188 31.773438l-7.277343 7.28125 16.351562 16.351562 7.277344-7.28125c14.058594-14.054687 11.363281-37.628906-5.609375-48.125zm0 0" fill="#db6595"/><path d="m457.457031 166.082031-10.925781 10.925781 43.679688 43.679688 10.929687-10.925781zm0 0" fill="#3a4d7b"/></svg>