<?xml version="1.0" encoding="iso-8859-1"?>
<!-- Generator: Adobe Illustrator 19.0.0, SVG Export Plug-In . SVG Version: 6.00 Build 0)  -->
<svg version="1.1" id="Capa_1" xmlns="http://www.w3.org/2000/svg" xmlns:xlink="http://www.w3.org/1999/xlink" x="0px" y="0px"
	 viewBox="0 0 512 512" style="enable-background:new 0 0 512 512;" xml:space="preserve">
<path style="fill:#66C6B9;" d="M480,0H32C13.867,0,0,13.867,0,32v448c0,18.133,13.867,32,32,32h358.4L512,390.4V32
	C512,13.867,498.133,0,480,0z"/>
<polygon style="fill:#E8EAE9;" points="390.4,512 512,390.4 390.4,390.4 "/>
<g>
	<path style="fill:#344A5E;" d="M49.067,52.267V198.4v76.8v132.267h268.8V396.8H181.333c-3.2-66.133-55.467-119.467-121.6-121.6
		v-76.8H195.2V62.933h87.467v166.4H224V240h68.267V62.933h100.267v60.8h-44.8V134.4h44.8v178.133H403.2V52.267H49.067z
		 M170.667,395.733H59.733V284.8C119.467,288,168.533,336,170.667,395.733z M184.533,186.667h-124.8V62.933h124.8V186.667z"/>
	<polygon style="fill:#344A5E;" points="466.133,105.6 466.133,94.933 426.667,94.933 426.667,105.6 440.533,105.6 440.533,224 
		426.667,224 426.667,234.667 440.533,234.667 440.533,353.067 426.667,353.067 426.667,363.733 466.133,363.733 466.133,353.067 
		451.2,353.067 451.2,234.667 466.133,234.667 466.133,224 451.2,224 451.2,105.6 	"/>
	<polygon style="fill:#344A5E;" points="350.933,438.4 232.533,438.4 232.533,424.533 221.867,424.533 221.867,438.4 102.4,438.4 
		102.4,424.533 91.733,424.533 91.733,462.933 102.4,462.933 102.4,449.067 221.867,449.067 221.867,462.933 232.533,462.933 
		232.533,449.067 350.933,449.067 350.933,462.933 361.6,462.933 361.6,424.533 350.933,424.533 	"/>
</g>
<g>
</g>
<g>
</g>
<g>
</g>
<g>
</g>
<g>
</g>
<g>
</g>
<g>
</g>
<g>
</g>
<g>
</g>
<g>
</g>
<g>
</g>
<g>
</g>
<g>
</g>
<g>
</g>
<g>
</g>
</svg>
