<?xml version="1.0" encoding="utf-8"?>
<!-- Generator: Adobe Illustrator 23.0.0, SVG Export Plug-In . SVG Version: 6.00 Build 0)  -->
<svg version="1.1" id="Layer_1" xmlns:svgjs="http://svgjs.com/svgjs"
	 xmlns="http://www.w3.org/2000/svg" xmlns:xlink="http://www.w3.org/1999/xlink" x="0px" y="0px" viewBox="0 0 512 512"
	 style="enable-background:new 0 0 512 512;" xml:space="preserve">
<style type="text/css">
	.st0{fill:#FFFFFF;}
</style>
<g>
	<path id="XMLID_585_" class="st0" d="M233.1,251.1l21.9-57l21.9,57H357l-40-102.2c-13.2,19.9-35.8,33.1-61.4,33.1
		c-26.1,0-49.1-13.7-62.2-34.3l-40.5,103.4H233.1L233.1,251.1z"/>
	<path id="XMLID_612_" class="st0" d="M270.6,36.4V0h-30.1v36.4c4.9-1,9.9-1.5,15-1.5S265.7,35.4,270.6,36.4z"/>
	<circle id="XMLID_613_" class="st0" cx="255.5" cy="108.4" r="43.5"/>
	<path id="XMLID_618_" class="st0" d="M84,281.2v29.9h45.4L78.9,440l20.7,8.1L78.7,501l28,11l20.8-52.9l22.3,8.8L210,311.1h30.5
		v38.1h30.1v-38.1h29.3l60.2,156.8l22.7-8.9l20.4,51.9l28-11L410.8,448l20.3-8l-50.5-128.9h52.7v-29.9H84z"/>
</g>
</svg>
