<?xml version="1.0" encoding="utf-8"?>
<!-- Generator: Adobe Illustrator 23.0.0, SVG Export Plug-In . SVG Version: 6.00 Build 0)  -->
<svg version="1.1" id="Layer_1" xmlns:svgjs="http://svgjs.com/svgjs"
	 xmlns="http://www.w3.org/2000/svg" xmlns:xlink="http://www.w3.org/1999/xlink" x="0px" y="0px" viewBox="0 0 512 512"
	 style="enable-background:new 0 0 512 512;" xml:space="preserve">
<style type="text/css">
	.st0{fill:#CFD3E2;}
</style>
<g>
	<g>
		<path class="st0" d="M467,210H45c-24.8,0-45,20.2-45,45c0,36.2,25.8,66.5,60,73.5V437c0,41.4,33.6,75,75,75h242
			c41.4,0,75-33.6,75-75V328.5c34.2-7,60-37.3,60-73.5C512,230.2,491.8,210,467,210z M30,255c0-8.3,6.7-15,15-15h15v57.2
			C42.6,291,30,274.5,30,255z M452,297.2V240h15c8.3,0,15,6.7,15,15C482,274.5,469.4,291,452,297.2z"/>
		<path class="st0" d="M62.4,171.3c3.5,7.6,12.5,10.8,19.9,7.4l328-150c7.5-3.5,10.8-12.4,7.4-19.9c-3.5-7.5-12.4-10.8-19.9-7.4
			L287.7,51c-13.9-30.1-49.5-43.3-79.6-29.4C178,35.4,164.9,71,178.7,101.2l-109,50.2C62.2,154.8,58.9,163.7,62.4,171.3L62.4,171.3z
			"/>
		<path class="st0" d="M416.9,80.1c0-8.3-6.7-15-15-15c-2.8,0-27.9,0.4-42.5,15c-14.6,14.6-15,39.6-15,42.4c0,5.2-1.8,16.8-6.2,21.2
			c-4.2,4.2-15.1,6.2-21.2,6.2c-8.3,0-15,6.7-15,15s6.7,15,15,15c2.8,0,27.8-0.4,42.4-15s15-39.6,15-42.4c0-5.2,1.8-16.8,6.2-21.2
			c4.1-4.1,15.1-6.2,21.3-6.2C410.2,95.1,416.9,88.4,416.9,80.1L416.9,80.1z"/>
		<path class="st0" d="M407,180c2.8,0,27.8-0.4,42.4-15s15-39.6,15-42.4c0-5.2,1.8-16.8,6.2-21.2c4.1-4.1,15.1-6.2,21.3-6.2
			c8.3,0,15-6.7,15-15c0-8.3-6.7-15-15-15c-2.8,0-27.9,0.4-42.5,15c-14.6,14.6-15,39.6-15,42.4c0,5.2-1.8,16.8-6.2,21.2
			c-4.2,4.2-15.1,6.2-21.2,6.2c-8.3,0-15,6.7-15,15S398.7,180,407,180L407,180z"/>
	</g>
</g>
</svg>
