<?xml version="1.0" encoding="utf-8"?>
<!-- Generator: Adobe Illustrator 23.0.0, SVG Export Plug-In . SVG Version: 6.00 Build 0)  -->
<svg version="1.1" id="Layer_1" xmlns:svgjs="http://svgjs.com/svgjs"
	 xmlns="http://www.w3.org/2000/svg" xmlns:xlink="http://www.w3.org/1999/xlink" x="0px" y="0px" viewBox="0 0 512 512"
	 style="enable-background:new 0 0 512 512;" xml:space="preserve">
<style type="text/css">
	.st0{fill:#CFD3E2;}
</style>
<g>
	<path class="st0" d="M481.9,394.9h-92v118h30v-88h62v88h30V275.9h-30V394.9z"/>
	<path class="st0" d="M30.1,275.9h-30v236.9h30v-88h62v88h30v-118h-92V275.9z"/>
	<path class="st0" d="M271,26.8V1h-30v25.8c5-0.3,10-0.4,15-0.4S266,26.5,271,26.8z"/>
	<path class="st0" d="M146.5,252.7c0.8-17.6,3-41.6,8.5-68c6.5-31.1,16.3-59,29.2-83.1c8.3-15.6,17.9-29.6,28.7-41.9
		C113.6,75.5,31.9,144.7,0,239.7c18.7-14.2,41.8-22.3,66.1-22.3C97,217.4,126.1,230.5,146.5,252.7z"/>
	<path class="st0" d="M357,184.7c5.5,26.4,7.7,50.4,8.5,68c20.4-22.2,49.5-35.3,80.4-35.3c24.3,0,47.4,8.1,66.1,22.3
		c-31.9-95-113.6-164.2-212.9-179.9c10.8,12.3,20.4,26.3,28.7,41.9C340.7,125.7,350.5,153.7,357,184.7z"/>
	<path class="st0" d="M271,218.4c24.7,3.4,47.4,15.2,64.4,33.2c-0.9-16.2-3-38-7.9-61.5C318.8,149.1,299.3,94.3,256,60
		c-63.6,50.2-76.9,144.3-79.4,191.6c17-18,39.7-29.8,64.4-33.2v101.3H139v76h102V483h-36.7v30h103.5v-30H271v-87.2h102v-76H271
		V218.4z"/>
</g>
</svg>
