<?xml version="1.0" encoding="utf-8"?>
<!-- Generator: Adobe Illustrator 23.0.0, SVG Export Plug-In . SVG Version: 6.00 Build 0)  -->
<svg version="1.1" id="Layer_1" xmlns:svgjs="http://svgjs.com/svgjs"
	 xmlns="http://www.w3.org/2000/svg" xmlns:xlink="http://www.w3.org/1999/xlink" x="0px" y="0px" viewBox="0 0 512 512"
	 style="enable-background:new 0 0 512 512;" xml:space="preserve">
<style type="text/css">
	.st0{fill:#FFFFFF;}
</style>
<g>
	<g id="surface1">
		<path class="st0" d="M449.8,242.7l-20.4-8.8V220c0.3-85.4-53.6-161.7-134.3-189.9V10.6c0-5.8-4.7-10.6-10.5-10.6H171.8
			c-5.8,0-10.5,4.7-10.5,10.6v19.7C80.6,58.5,26.7,134.7,26.9,220.2v14l-20.1,8.5c-3.9,1.6-6.4,5.5-6.4,9.7v55.4
			c0,5.8,4.7,10.5,10.6,10.5h13.7v21.1c0,5.8,4.7,10.5,10.5,10.5H73c3.6,13.2,8.9,25.9,15.7,37.8L62,414.6c-4.1,4.1-4.1,10.8,0,14.9
			l44.8,44.8c4.1,4.1,10.8,4.1,14.9,0l26.8-26.8c11.8,6.8,24.5,12.1,37.7,15.7v37.9c0,5.8,4.7,10.5,10.6,10.5H260
			c5.8,0,10.6-4.7,10.6-10.5v-37.9c13.2-3.6,25.9-8.9,37.8-15.7l26.8,26.8c4.1,4.1,10.8,4.1,14.9,0l44.8-44.8
			c4.1-4.1,4.1-10.8,0-14.9L368,387.8c6.8-11.9,12.1-24.6,15.7-37.8h37.9c5.8,0,10.6-4.7,10.6-10.5v-21.1h13.7
			c5.8,0,10.5-4.7,10.5-10.5v-55.4C456.4,248.2,453.8,244.3,449.8,242.7z M182.1,21.2h92v176.3h-91.8L182.1,21.2z M411.1,328.9H376
			c-5.1-0.1-9.5,3.4-10.6,8.3c-3.6,16.5-10.1,32.2-19.3,46.4c-2.7,4.2-2.1,9.7,1.4,13.2l25.2,25.2l-30.2,30l-25.2-25.2
			c-3.5-3.5-9-4.1-13.2-1.4c-14.2,9.2-29.9,15.7-46.4,19.3c-4.9,1.1-8.4,5.5-8.3,10.6v35.5h-42.2V455c0.1-5.1-3.4-9.5-8.3-10.5
			c-16.5-3.5-32.2-10.1-46.4-19.3c-4.2-2.7-9.7-2.1-13.2,1.4l-25.2,25.2l-29.9-29.9l25.2-25.2c3.5-3.5,4.1-9,1.4-13.2
			c-9.3-14.1-15.9-29.7-19.6-46.2c-1.1-4.9-5.5-8.4-10.6-8.3H45.5v-10.6h96.4c5.8,47.7,49.1,81.6,96.8,75.8
			c39.7-4.8,71-36.1,75.8-75.8H411L411.1,328.9z M163.4,318.4h129.9c-5.8,35.9-39.6,60.3-75.5,54.5c-28-4.5-49.9-26.5-54.5-54.5
			H163.4z M435.4,297.3h-414v-37.9l20.4-8.8c3.9-1.6,6.4-5.5,6.4-9.7v-21.1C48,146.1,92.8,79.8,161.3,52.6V208
			c0,5.8,4.7,10.5,10.5,10.5h113.1c5.8,0,10.6-4.7,10.6-10.5V52.6C364,79.8,408.9,146.3,408.6,220v21.1c0,4.2,2.5,8.1,6.4,9.7
			l20.4,8.8V297.3L435.4,297.3z"/>
	</g>
</g>
</svg>
