<?xml version="1.0" encoding="utf-8"?>
<!-- Generator: Adobe Illustrator 23.0.0, SVG Export Plug-In . SVG Version: 6.00 Build 0)  -->
<svg version="1.1" id="Layer_1" xmlns:svgjs="http://svgjs.com/svgjs"
	 xmlns="http://www.w3.org/2000/svg" xmlns:xlink="http://www.w3.org/1999/xlink" x="0px" y="0px" viewBox="0 0 512 512"
	 style="enable-background:new 0 0 512 512;" xml:space="preserve">
<style type="text/css">
	.st0{fill:#E43A15;stroke:#000000;stroke-miterlimit:10;}
</style>
<g>
	<path class="st0" d="M512,69.7C512,31.2,480.8,0,442.3,0c-38.4,0-69.7,31.3-69.7,69.7v39.3H20.3C9.1,108.9,0,118,0,129.2l1.3,273.9
		c2.5,7.9,11,13.2,19,13.2h422c38.4,0,69.7-31.3,69.7-69.7V69.7z M372.7,259.5l-76.8,41.1c-11.3,6-2.1,24.2,9.6,17.9l67.2-36v41.9
		L239.3,396h-78.2l73.3-39.3c11.5-6.2,1.9-24.1-9.6-17.9L118,396l-77.9,0l332.6-178.2V259.5z M178.8,129.2h76.8l83.5,83.5l-50,26.8
		L178.8,129.2z M110.9,207.1L20.3,255v-40.7l63.9-33.8L110.9,207.1z M20.3,278L126,222.2l26.4,26.4l-132,69.7V278z M167.4,263.6
		l26.8,26.8L20.3,383.5v-42.3L167.4,263.6z M372.7,194.7l-14.9,8l-73.4-73.4h88.3V194.7z M270.4,249.6l-57.5,30.8L61.8,129.2h88.3
		L270.4,249.6z M20.3,129.2h12.7l36.2,36.2l-48.9,25.8V129.2z M282.4,396l90.3-48.4c0.2,18.9,8,36,20.5,48.4H282.4z M442.3,396
		c-27.2,0-49.3-22.1-49.3-49.3s22.1-49.3,49.3-49.3c27.2,0,49.3,22.1,49.3,49.3S469.5,396,442.3,396z M442.3,277
		c-19.3,0-36.7,7.9-49.3,20.5v-40c0-26.8,22.5-49.3,49.3-49.3s49.3,22.5,49.3,49.3v40C479,284.9,461.6,277,442.3,277z M490.5,207.2
		c-27-25.9-71.1-25.4-97.5,1.1v-7.5c0,0,0-0.1,0-0.1v-37c0-26.8,22.5-49.3,49.3-49.3s49.3,22.5,49.3,49.3v44.6
		C491.3,208,490.9,207.6,490.5,207.2z M490.5,113.5c-27-25.9-71.1-25.4-97.5,1.1v-45c0-27.2,22.1-49.3,49.3-49.3
		c27.2,0,49.3,22.1,49.3,49.3v45C491.3,114.3,490.9,113.9,490.5,113.5C490.1,113.1,490.9,113.9,490.5,113.5z"/>
	<path class="st0" d="M442.3,313.5c-18.3,0-33.2,14.9-33.2,33.2s14.9,33.2,33.2,33.2c18.3,0,33.2-14.9,33.2-33.2
		S460.6,313.5,442.3,313.5z M442.3,359.5c-7.1,0-12.8-5.8-12.8-12.9s5.8-12.8,12.8-12.8c7.1,0,12.9,5.8,12.9,12.8
		S449.4,359.5,442.3,359.5z"/>
	<path class="st0" d="M264.9,317.8c-5.5,0-10.2,4.6-10.2,10.2c0,5.5,4.6,10.2,10.2,10.2c5.4,0,9.9-4.4,10.1-9.7
		C275.3,322.7,270.6,317.8,264.9,317.8z"/>
</g>
</svg>
