<svg id="Capa_1" enable-background="new 0 0 512.002 512.002" height="512" viewBox="0 0 512.002 512.002" width="512" xmlns="http://www.w3.org/2000/svg"><g><g><path d="m115.445 144.586-33 78.314v128.37l51.5 9.017v-230.991z" fill="#ffa90f"/><path d="m44.507 274.665v60.299l5.188 10.573 39.531 6.921c0-23.488 0-56.154 0-100.838 0-52.114 20.797-88.247 44.719-112.58v-24.526l-5.204-8.772c-51.162 38.599-84.234 99.895-84.234 168.923z" fill="#ff9b00"/><path d="m162.445 105.742-33.704 27.855v217.666 6.303l61.871 8.387v-274.263z" fill="#ffb640"/><path d="m190.612 79.953-5.236-4.69c-20.518 7.268-39.581 17.612-56.635 30.478v38.844c21.459-23.956 46.637-37.701 61.871-44.455z" fill="#ffa90f"/><path d="m383.271 105.742-4.826 6.045v245.78l81.75-16.03 7.31-6.573v-60.299c0-69.028-33.072-130.324-84.234-168.923z" fill="#ffa90f"/><path d="m326.636 75.263-3.358 4.19v291.083l54.667-12.97 5.326-6.303v-245.521c-17.053-12.866-36.116-23.21-56.635-30.479z" fill="#ffb640"/><path d="m281.673 34.076-10.978 7.961h-33l-7.356-7.961c-25.085.887-45.333 21.666-45.333 46.957v276.533l8.273 8.387h119.666l14.061-8.387v-276.533c0-25.291-20.248-46.07-45.333-46.957z" fill="#ffc365"/><path d="m256.006 301.7c14.175 0 25.667-11.491 25.667-25.667v-241.957c-.554-.02-1.108-.043-1.667-.043h-48c-.559 0-1.112.023-1.667.043v241.957c0 14.175 11.492 25.667 25.667 25.667z" fill="#ffd086"/><path d="m485.751 334.964h-18.246c-129.191 31.557-263.676 33.757-393.612 6.635l-18.583 4.921 8.636 67.767 31.333 47.333 38.071 16.349h268.113c56.675 0 103.045-46.37 103.045-103.045v-21.205c-.001-10.315-8.441-18.755-18.757-18.755z" fill="#ffd086"/><g><path d="m69.407 374.924v-21.205c0-4.614 1.697-8.845 4.486-12.121-9.822-2.05-19.62-4.249-29.386-6.635h-18.246c-10.315 0-18.756 8.44-18.756 18.756v21.205c0 56.675 46.371 103.045 103.045 103.045h61.902c-56.674 0-103.045-46.37-103.045-103.045z" fill="#ffc365"/></g></g><g><path d="m485.746 327.463h-10.746v-52.799c0-93.119-58.34-173.491-141.687-204.94-5.276-24.9-27.436-43.192-53.312-43.192h-48c-25.912 0-48.044 18.328-53.312 43.192-82.925 31.292-141.687 111.36-141.687 204.941v52.799h-10.746c-14.478-.001-26.256 11.778-26.256 26.255v21.205c0 60.955 49.59 110.545 110.545 110.545h127.956c4.143 0 7.5-3.357 7.5-7.5s-3.357-7.5-7.5-7.5h-127.956c-52.684 0-95.545-42.861-95.545-95.545v-21.205c0-6.206 5.05-11.256 11.256-11.256 43.879 0 48.727 17.45 184.601 24.296 86.656 4.347 173.148-3.771 257.544-24.296h17.346c6.206 0 11.256 5.05 11.256 11.256v21.205c0 52.684-42.861 95.545-95.545 95.545h-127.957c-4.143 0-7.5 3.357-7.5 7.5s3.357 7.5 7.5 7.5h127.956c60.955 0 110.545-49.59 110.545-110.545v-21.205c0-14.477-11.778-26.256-26.256-26.256zm-25.746-52.798v54.364c-22.135 5.249-44.116 9.646-69.233 13.502v-221.023c44.184 38.756 69.233 93.758 69.233 153.157zm-84.233 70.047c-13.718 1.865-27.477 3.41-41.266 4.631v-263.012c14.585 6.084 28.416 13.855 41.266 23.19zm-152.933-302.093v233.414c0 18.288 14.879 33.167 33.167 33.167s33.167-14.879 33.167-33.167v-85.964c0-4.142-3.357-7.5-7.5-7.5s-7.5 3.358-7.5 7.5v85.964c0 10.018-8.149 18.167-18.167 18.167s-18.167-8.149-18.167-18.167v-234.5h36.334v113.536c0 4.142 3.357 7.5 7.5 7.5s7.5-3.358 7.5-7.5v-112.45c17.792 4.246 30.333 20.252 30.333 38.415v269.499c-42.263 3.021-84.737 3.021-127 0v-269.5c0-18.2 12.586-34.179 30.333-38.414zm-45.333 306.724c-13.788-1.221-27.547-2.765-41.265-4.631v-235.191c12.849-9.335 26.68-17.105 41.265-23.189zm-56.265-227.835v221.023c-24.684-3.79-46.718-8.162-69.234-13.502v-54.364c0-59.399 25.05-114.402 69.234-153.157z"/></g></g></svg>