<svg height="512" viewBox="0 0 512 512" width="512" xmlns="http://www.w3.org/2000/svg"><g id="Flat"><path d="m456 24h-432v392l72 72h360z" fill="#e4e4e3"/><path d="m72 72h192v288h-192z" fill="#eaae48"/><g fill="#ce892a"><path d="m160 72h16v288h-16z"/><path d="m96 360h16v24h-16z"/><path d="m224 360h16v24h-16z"/><path d="m192 208h16v16h-16z"/><path d="m128 208h16v16h-16z"/></g><path d="m264 248h144v32h-144z" fill="#0093b9"/><path d="m264 280h144v80h-144z" fill="#0784a9"/><path d="m296 312h16v16h-16z" fill="#067a98"/><path d="m360 312h16v16h-16z" fill="#067a98"/><path d="m376 360h16v24h-16z" fill="#0093b9"/><path d="m288 360h16v24h-16z" fill="#0093b9"/><path d="m328 280h16v80h-16z" fill="#067a98"/><path d="m309.319 167.473h16v54.24h-16z" fill="#85bb40" transform="matrix(.981 -.196 .196 .981 -32.002 66.013)"/><path d="m327.561 186.593h54.24v16h-54.24z" fill="#85bb40" transform="matrix(.196 -.981 .981 .196 94.312 504.227)"/><path d="m304 72h104v64h-104z" fill="#85bb40"/><path d="m360 248h-48l-8-40h64z" fill="#eaae48"/><path d="m96 488v-72h-72z" fill="#b3b1b3"/><path d="m472.605 431.98-319.59 16.194-16.789-15.174 15.174-16.785 319.59-16.194a16 16 0 0 1 16.789 15.17 16 16 0 0 1 -15.174 16.789z" fill="#fbbe1f"/><path d="m176.164 414.575h16.001v32h-16.001z" fill="#f79726" transform="matrix(.999 -.051 .051 .999 -21.55 9.87)"/></g></svg>