<?xml version="1.0" encoding="utf-8"?>
<!-- Generator: Adobe Illustrator 23.0.0, SVG Export Plug-In . SVG Version: 6.00 Build 0)  -->
<svg version="1.1" id="Layer_1" xmlns:svgjs="http://svgjs.com/svgjs"
	 xmlns="http://www.w3.org/2000/svg" xmlns:xlink="http://www.w3.org/1999/xlink" x="0px" y="0px" viewBox="0 0 512 512"
	 style="enable-background:new 0 0 512 512;" xml:space="preserve">
<style type="text/css">
	.st0{fill:#FFFFFF;}
</style>
<g>
	<path class="st0" d="M422.8,230.3H362v31.1c6.9,1.4,12,7.4,12,14.7c0,7.3-5.2,13.3-12,14.7v65.9h60.8V230.3z"/>
	<path class="st0" d="M163,197.7c4.1,2.7,6.9,7.3,6.9,12.6s-2.7,9.9-6.9,12.6v36.9l23-5v-87.9l-23-5V197.7z"/>
	<path class="st0" d="M133,222.9c-4.1-2.7-6.9-7.3-6.9-12.6s2.7-9.9,6.9-12.6v-42.5l-23-5v121.2l23-5V222.9z"/>
	<path class="st0" d="M18.7,0.5C14.2-0.7,9.5,0.3,5.8,3.1C2.1,6,0,10.4,0,15v391.6c0,4.6,2.1,9,5.8,11.9c2.7,2.1,5.9,3.1,9.2,3.1
		c1.2,0,2.5-0.2,3.7-0.5l236-60.6V61L18.7,0.5z M204.2,281.5L98.3,304.7c-1.1,0.2-2.1,0.4-3.2,0.4c-3.4,0-6.7-1.1-9.4-3.3
		c-3.5-2.8-5.6-7.1-5.6-11.7V131.5c0-4.5,2.1-8.8,5.6-11.7c3.5-2.8,8.2-3.9,12.6-3l105.9,23.3c6.9,1.5,11.8,7.6,11.8,14.7v112
		C216,273.9,211.1,280,204.2,281.5z"/>
	<path class="st0" d="M497,64.9H284.7v291.9H332V215.3c0-8.3,6.7-15,15-15h90.8c8.3,0,15,6.7,15,15v141.4H497c8.3,0,15-6.7,15-15
		V79.9C512,71.6,505.3,64.9,497,64.9z"/>
</g>
</svg>
