<svg height="512" viewBox="0 0 512 512" width="512" xmlns="http://www.w3.org/2000/svg"><g><g><g><path d="m16 448h480v32h-480z" fill="#a0815c"/><path d="m16 184 240-144 240 144v40l-240-144-240 144z" fill="#a0815c"/><path d="m64 195.2v252.8h384v-252.8l-192-115.2z" fill="#d8d7da"/><path d="m424 140.8v-76.8h-48v48" fill="#5f4d37"/><path d="m104 280h96v144h-96z" fill="#78b9eb"/><path d="m88 424h128v24h-128z" fill="#5f4d37"/><path d="m248 280h160v80h-160z" fill="#78b9eb"/><path d="m232 360h192v24h-192z" fill="#5f4d37"/></g><circle cx="128" cy="128" fill="#91cc04" r="112"/></g><g><path d="m491.88 230.86a8 8 0 0 0 12.12-6.86v-40a8 8 0 0 0 -3.88-6.86l-68.12-40.87v-72.27a8 8 0 0 0 -8-8h-48a8 8 0 0 0 -8 8v33.87l-107.88-64.73a8.015 8.015 0 0 0 -8.24 0l-31.2 18.72a119.967 119.967 0 0 0 -203.52 122.11l-5.28 3.17a8 8 0 0 0 -3.88 6.86v40a8 8 0 0 0 12.12 6.86l25.75-15.45a123.41 123.41 0 0 0 10.14 8.54c0 .08-.01.17-.01.25v215.8h-40a8 8 0 0 0 -8 8v32a8 8 0 0 0 8 8h480a8 8 0 0 0 8-8v-32a8 8 0 0 0 -8-8h-40v-230.67zm-107.88-158.86h32v54.67l-32-19.2zm-360 137.87v-21.34l.31-.19a121.9 121.9 0 0 0 10.43 15.09zm0-81.87a104 104 0 1 1 104 104 104.112 104.112 0 0 1 -104-104zm219.83-31.37 12.17-7.3 184 110.4v240.27h-216v-16a8 8 0 0 0 -8-8h-8v-136a8 8 0 0 0 -8-8h-96a8 8 0 0 0 -8 8v136h-8a8 8 0 0 0 -8 8v16h-8v-205.9a119.988 119.988 0 0 0 171.83-137.47zm-35.83 335.37v8h-112v-8zm-96-16v-128h80v128zm376 40v16h-464v-16zm-227.88-382.86a8.015 8.015 0 0 0 -8.24 0l-13.39 8.04a120.548 120.548 0 0 0 -8.46-16.27l25.97-15.58 232 139.2v21.34z"/><path d="m176 376a8 8 0 0 0 8-8v-16a8 8 0 0 0 -16 0v16a8 8 0 0 0 8 8z"/><path d="m240 280v72h-8a8 8 0 0 0 -8 8v24a8 8 0 0 0 8 8h192a8 8 0 0 0 8-8v-24a8 8 0 0 0 -8-8h-8v-72a8 8 0 0 0 -8-8h-160a8 8 0 0 0 -8 8zm176 96h-176v-8h176zm-160-88h144v64h-144z"/><path d="m74.343 181.657a8 8 0 0 0 11.314 0l96-96a8 8 0 0 0 -11.314-11.314l-96 96a8 8 0 0 0 0 11.314z"/><path d="m88 120a24 24 0 1 0 -24-24 24.028 24.028 0 0 0 24 24zm0-32a8 8 0 1 1 -8 8 8.009 8.009 0 0 1 8-8z"/><path d="m144 160a24 24 0 1 0 24-24 24.028 24.028 0 0 0 -24 24zm32 0a8 8 0 1 1 -8-8 8.009 8.009 0 0 1 8 8z"/></g></g></svg>