<?xml version="1.0" encoding="utf-8"?>
<!-- Generator: Adobe Illustrator 23.0.0, SVG Export Plug-In . SVG Version: 6.00 Build 0)  -->
<svg version="1.1" id="Layer_1" xmlns="http://www.w3.org/2000/svg" xmlns:xlink="http://www.w3.org/1999/xlink" x="0px" y="0px"
	 viewBox="0 0 512 512" style="enable-background:new 0 0 512 512;" xml:space="preserve">
<style type="text/css">
	.st0{fill:#F2351C;stroke:#F2351C;stroke-width:22;stroke-miterlimit:10;}
	.st1{fill:#F2351C;}
</style>
<path class="st0" d="M269.7,501.4h-30.3c-24.5,0-44.4-20.2-44.4-45v-10.4c-10.4-3.4-20.5-7.6-30.2-12.7l-7.3,7.4
	c-17.6,17.8-45.7,17.3-62.8,0L73.4,419c-17.1-17.3-17.6-45.8,0-63.7l7.2-7.4c-5-9.8-9.2-20.1-12.5-30.6H57.9
	c-24.5,0-44.4-20.2-44.4-45v-30.7c0-24.8,19.9-45,44.4-45h10.2c3.3-10.6,7.5-20.8,12.5-30.6l-7.3-7.4c-17.6-17.8-17.1-46.3,0-63.7
	l21.4-21.7c17.1-17.4,45.2-17.8,62.8,0l7.2,7.3c9.7-5.1,19.8-9.4,30.2-12.7V57.6c0-24.8,19.9-45,44.4-45h30.3
	c24.5,0,44.4,20.2,44.4,45v10.4c10.4,3.4,20.5,7.6,30.2,12.7l7.3-7.4c17.6-17.8,45.7-17.3,62.8,0L435.6,95
	c17.1,17.3,17.6,45.8,0,63.7l-7.2,7.4c5,9.8,9.2,20.1,12.5,30.6h10.2c24.5,0,44.4,20.2,44.4,45v30.7c0,24.8-19.9,45-44.4,45h-10.2
	c-3.3,10.6-7.5,20.8-12.5,30.6l7.3,7.4c17.6,17.8,17.1,46.3,0,63.7l-21.4,21.7c-17.1,17.4-45.2,17.8-62.8,0l-7.2-7.3
	c-9.7,5.1-19.8,9.4-30.2,12.7v10.4C314,481.3,294.1,501.4,269.7,501.4z M169.5,403.3c13.5,8.1,28,14.2,43.1,18.2
	c6.2,1.6,10.6,7.3,10.6,13.9v21.1c0,9,7.2,16.4,16.1,16.4h30.3c8.9,0,16.1-7.3,16.1-16.4v-21.1c0-6.5,4.4-12.2,10.6-13.9
	c15.1-4,29.7-10.1,43.1-18.2c5.5-3.3,12.6-2.4,17.2,2.2l14.8,15c6.4,6.5,16.6,6.3,22.8,0l21.4-21.7c6.2-6.3,6.4-16.7,0-23.1
	l-14.8-15c-4.6-4.6-5.5-11.8-2.2-17.4c8-13.7,14-28.4,17.9-43.8c1.6-6.3,7.2-10.7,13.7-10.7h20.8c8.9,0,16.1-7.3,16.1-16.4v-30.7
	c0-9-7.2-16.4-16.1-16.4h-20.8c-6.4,0-12.1-4.4-13.7-10.7c-3.9-15.4-9.9-30.1-17.9-43.8c-3.3-5.6-2.4-12.8,2.2-17.4l14.8-15
	c6.4-6.5,6.2-16.8,0-23.1l-21.4-21.7c-6.2-6.3-16.4-6.5-22.8,0l-14.8,15c-4.6,4.6-11.6,5.5-17.2,2.2c-13.5-8.1-28-14.2-43.1-18.2
	c-6.2-1.6-10.6-7.3-10.6-13.9V57.6c0-9-7.2-16.4-16.1-16.4h-30.3c-8.9,0-16.1,7.3-16.1,16.4v21.1c0,6.5-4.4,12.2-10.6,13.9
	c-15.1,4-29.7,10.1-43.1,18.2c-5.6,3.3-12.6,2.4-17.2-2.2l-14.8-15c-6.4-6.5-16.6-6.3-22.8,0l-21.4,21.7c-6.2,6.3-6.4,16.6,0,23.1
	l14.8,15c4.6,4.6,5.5,11.8,2.2,17.4c-8,13.7-14,28.4-17.9,43.8c-1.6,6.3-7.2,10.7-13.7,10.7H57.9c-8.9,0-16.1,7.3-16.1,16.4v30.7
	c0,9,7.2,16.4,16.1,16.4h20.8c6.4,0,12.1,4.4,13.7,10.7c3.9,15.4,9.9,30.1,17.9,43.8c3.3,5.6,2.4,12.8-2.2,17.4l-14.8,15
	c-6.4,6.5-6.2,16.8,0,23.1l21.4,21.7c6.2,6.3,16.4,6.5,22.8,0l14.8-15C155.7,402.1,162.7,399.2,169.5,403.3L169.5,403.3z"/>
<path class="st1" d="M254.5,363.4c-57.8,0-104.9-47.7-104.9-106.4s47-106.4,104.9-106.4S359.4,198.3,359.4,257
	S312.4,363.4,254.5,363.4z M254.5,179.3c-42.3,0-76.6,34.9-76.6,77.7s34.4,77.7,76.6,77.7s76.6-34.9,76.6-77.7
	S296.8,179.3,254.5,179.3L254.5,179.3z"/>
</svg>
