<?xml version="1.0" encoding="utf-8"?>
<!-- Generator: Adobe Illustrator 23.0.0, SVG Export Plug-In . SVG Version: 6.00 Build 0)  -->
<svg version="1.1" id="Layer_1" xmlns:svgjs="http://svgjs.com/svgjs"
	 xmlns="http://www.w3.org/2000/svg" xmlns:xlink="http://www.w3.org/1999/xlink" x="0px" y="0px" viewBox="0 0 512 512"
	 style="enable-background:new 0 0 512 512;" xml:space="preserve">
<style type="text/css">
	.st0{fill:#CFD3E2;}
</style>
<g>
	<g>
		<g>
			<g>
				<path class="st0" d="M127,202.2v31h113V122.5c0-21.9-17.8-39.7-39.7-39.7H99.7c-21.9,0-39.7,17.8-39.7,39.7v19.8h7
					C100.1,142.3,127,169.2,127,202.2z"/>
			</g>
			<g>
				<path class="st0" d="M482,172.2h-37c-16.5,0-30,13.5-30,30v61H97v-61c0-16.5-13.5-30-30-30H30c-16.5,0-30,13.5-30,30v137
					c0,16.5,13.5,30,30,30h452c16.5,0,30-13.5,30-30v-137C512,185.7,498.5,172.2,482,172.2z"/>
			</g>
			<g>
				<path class="st0" d="M385,202.2c0-33.1,26.9-60,60-60h7v-19.4c0-22.2-18-40.1-40.1-40.1H310.1c-22.2,0-40.1,18-40.1,40.1v110.4
					h115L385,202.2z"/>
			</g>
			<g>
				<path class="st0" d="M402.6,418.6c1.9,6.3,7.7,10.7,14.4,10.7h50c8.3,0,15-6.7,15-15v-15h-85.2L402.6,418.6z"/>
			</g>
			<g>
				<path class="st0" d="M30,414.3c0,8.3,6.7,15,15,15h50c6.6,0,12.5-4.3,14.4-10.7l5.8-19.3H30L30,414.3z"/>
			</g>
		</g>
	</g>
</g>
</svg>
