<?xml version="1.0" encoding="utf-8"?>
<!-- Generator: Adobe Illustrator 23.0.0, SVG Export Plug-In . SVG Version: 6.00 Build 0)  -->
<svg version="1.1" id="Layer_1" xmlns:svgjs="http://svgjs.com/svgjs"
	 xmlns="http://www.w3.org/2000/svg" xmlns:xlink="http://www.w3.org/1999/xlink" x="0px" y="0px" viewBox="0 0 512 512"
	 style="enable-background:new 0 0 512 512;" xml:space="preserve">
<style type="text/css">
	.st0{fill:#F2351C;stroke:#F2351C;stroke-width:25;stroke-miterlimit:10;}
</style>
<g>
	<g>
		<g>
			<path class="st0" d="M450.4,55.2c0-21.5-17.2-38.9-38.4-38.9H251.2c-10.2,0-19.9,4.1-27.2,11.4L14.8,240.1
				c-15,15.2-15,39.9,0,55.1l160.8,163.2c7.5,7.6,17.3,11.4,27.2,11.4c6.2,0,12.3-1.7,17.9-4.7c20.5-17.1-9.8,12.6,218.5-219.1
				c7.2-7.3,11.3-17.2,11.3-27.6C450.4,52.9,450.4,81.2,450.4,55.2z M431.2,218.5c0,5.2-2,10.1-5.6,13.8L216.3,444.6
				c-3.6,3.7-8.4,5.7-13.6,5.7s-9.9-2-13.6-5.7L28.4,281.4c-3.6-3.7-5.6-8.6-5.6-13.8c0-5.2,2-10.1,5.6-13.8L237.6,41.5
				c3.6-3.7,8.4-5.7,13.6-5.7H412c10.6,0,19.2,8.7,19.2,19.5L431.2,218.5L431.2,218.5z"/>
		</g>
	</g>
	<g>
		<g>
			<path class="st0" d="M488.8,55.3v182.7c0,5.2-2,10.1-5.6,13.8L256.3,481.9l13.6,13.8l226.8-230.2c7.2-7.3,11.3-17.2,11.3-27.6
				V55.3H488.8z"/>
		</g>
	</g>
	<g>
		<g>
			<path class="st0" d="M344.8,84.5c-21.2,0-38.4,17.5-38.4,39s17.2,39,38.4,39s38.4-17.5,38.4-39S366,84.5,344.8,84.5z M344.8,143
				c-10.6,0-19.2-8.7-19.2-19.5s8.6-19.5,19.2-19.5s19.2,8.7,19.2,19.5S355.4,143,344.8,143z"/>
		</g>
	</g>
</g>
</svg>
