<?xml version="1.0" encoding="utf-8"?>
<!-- Generator: Adobe Illustrator 23.0.0, SVG Export Plug-In . SVG Version: 6.00 Build 0)  -->
<svg version="1.1" id="Layer_1" xmlns="http://www.w3.org/2000/svg" xmlns:xlink="http://www.w3.org/1999/xlink" x="0px" y="0px"
	 viewBox="0 0 595.28 841.89" style="enable-background:new 0 0 595.28 841.89;" xml:space="preserve">
<style type="text/css">
	.st0{fill:#2E8795;}
	.st1{fill:#FF6633;}
</style>
<path class="st0" d="M202.01,265.79h-16.87c-2.81,0-5.09-2.28-5.09-5.09v-16.87c0-2.81,2.28-5.09,5.09-5.09h16.87
	c2.81,0,5.09,2.28,5.09,5.09v16.87C207.11,263.51,204.83,265.79,202.01,265.79z"/>
<path class="st1" d="M174.13,265.79h-16.87c-2.81,0-5.09-2.28-5.09-5.09v-16.87c0-2.81,2.28-5.09,5.09-5.09h16.87
	c2.81,0,5.09,2.28,5.09,5.09v16.87C179.22,263.51,176.94,265.79,174.13,265.79z"/>
<path class="st1" d="M202.43,294.09h-16.87c-2.81,0-5.09-2.28-5.09-5.09v-16.87c0-2.81,2.28-5.09,5.09-5.09h16.87
	c2.81,0,5.09,2.28,5.09,5.09V289C207.52,291.81,205.24,294.09,202.43,294.09z"/>
<path class="st0" d="M174.13,294.09h-16.87c-2.81,0-5.09-2.28-5.09-5.09v-16.87c0-2.81,2.28-5.09,5.09-5.09h16.87
	c2.81,0,5.09,2.28,5.09,5.09V289C179.22,291.81,176.94,294.09,174.13,294.09z"/>
</svg>
