<svg height="512" viewBox="0 0 64 64" width="512" xmlns="http://www.w3.org/2000/svg"><g id="main"><path d="m63 7v14a11.00656 11.00656 0 0 1 -11 11h-40a11.00656 11.00656 0 0 1 -11-11v-14a3.00879 3.00879 0 0 1 3-3h56a3.00879 3.00879 0 0 1 3 3z" fill="#f1f2f2"/><path d="m53.05859 26.9917a1.00025 1.00025 0 0 1 .6084-1.27686 5.01406 5.01406 0 0 0 3.33301-4.71484 1 1 0 0 1 2 0 7.01728 7.01728 0 0 1 -4.665 6.59961.99906.99906 0 0 1 -1.27641-.60791z" fill="#d1d3d4"/><path d="m63 7v7h-62v-7a3.00879 3.00879 0 0 1 3-3h56a3.00879 3.00879 0 0 1 3 3z" fill="#55c9e9"/><path d="m50 10.00488a1.00488 1.00488 0 1 1 1.00488-1.00488 1.00809 1.00809 0 0 1 -1.00488 1.00488z" fill="#fff"/><path d="m54 10.00488a1.00488 1.00488 0 1 1 1.00488-1.00488 1.00809 1.00809 0 0 1 -1.00488 1.00488z" fill="#fff"/><path d="m58 10.00488a1.00488 1.00488 0 1 1 1.00488-1.00488 1.00809 1.00809 0 0 1 -1.00488 1.00488z" fill="#fff"/><path d="m50 21v11h-36v-11a3.00879 3.00879 0 0 1 3-3h30a3.00879 3.00879 0 0 1 3 3z" fill="#55c9e9"/><path d="m26 10h-20a1 1 0 0 1 0-2h20a1 1 0 0 1 0 2z" fill="#0980b7"/><path d="m32 10h-2a1 1 0 0 1 0-2h2a1 1 0 0 1 0 2z" fill="#0980b7"/><g fill="#ccdde7"><path d="m25 56h-1a1 1 0 0 1 0-2h1a3.00328 3.00328 0 0 0 3-3v-17a1 1 0 0 1 2 0v17a5.00588 5.00588 0 0 1 -5 5z"/><path d="m40 52h-1a5.00588 5.00588 0 0 1 -5-5v-13a1 1 0 0 1 2 0v13a3.00328 3.00328 0 0 0 3 3h1a1 1 0 0 1 0 2z"/><path d="m46 47h-1a5.00588 5.00588 0 0 1 -5-5v-8a1 1 0 0 1 2 0v8a3.00328 3.00328 0 0 0 3 3h1a1 1 0 0 1 0 2z"/><path d="m19 47h-1a1 1 0 0 1 0-2h1a3.00328 3.00328 0 0 0 3-3v-8a1 1 0 0 1 2 0v8a5.00588 5.00588 0 0 1 -5 5z"/></g><path d="m61.86838 54.00006h.13134a1 1 0 0 0 0-1.99994h-.13134l.96333-1.44527a.99994.99994 0 1 0 -1.664-1.10935l-1.703 2.55462h-2.46471v-2.46478l2.55457-1.70307a.99994.99994 0 0 0 -1.10932-1.664l-1.44525.96358v-.13159a1 1 0 1 0 -1.9999 0v.13159l-1.44525-.9636a.99994.99994 0 0 0 -1.10932 1.664l2.55457 1.70307v2.46478h-2.46478l-1.703-2.55462a.99994.99994 0 1 0 -1.664 1.10935l.96333 1.44527h-.13134a1 1 0 0 0 0 1.99994h.13134l-.96333 1.44527a.99993.99993 0 1 0 1.664 1.10934l1.703-2.55461h2.46473v2.46477l-2.55457 1.70308a.99994.99994 0 0 0 1.10932 1.664l1.44525-.96359v.13158a1 1 0 1 0 1.9999 0v-.13158l1.44525.96359a.99994.99994 0 0 0 1.10932-1.664l-2.55452-1.70306v-2.46477h2.46473l1.703 2.55461a.99993.99993 0 1 0 1.664-1.10934z" fill="#55c9e9"/><path d="m13.86838 42.00017h.13134a1 1 0 0 0 0-1.99991h-.13134l.96333-1.44524a.99993.99993 0 1 0 -1.664-1.10933l-1.70305 2.55457h-2.46466v-2.46473l2.55457-1.703a.99993.99993 0 0 0 -1.10932-1.664l-1.44525.96355v-.13158a1 1 0 1 0 -1.9999 0v.13158l-1.4453-.96358a.99993.99993 0 0 0 -1.10932 1.664l2.55457 1.703v2.46473h-2.46473l-1.703-2.55457a.99993.99993 0 1 0 -1.664 1.10933l.96333 1.44524h-.13137a1 1 0 0 0 0 1.99991h.13134l-.96333 1.44524a.99993.99993 0 0 0 1.664 1.10932l1.703-2.55456h2.46476v2.46472l-2.55457 1.70308a.99993.99993 0 1 0 1.10932 1.664l1.44525-.96357v.13158a1 1 0 0 0 1.9999 0v-.13158l1.44525.96357a.99993.99993 0 0 0 1.10932-1.664l-2.55452-1.70305v-2.46472h2.46473l1.70305 2.55456a.99993.99993 0 1 0 1.664-1.10932z" fill="#55c9e9"/></g></svg>