<svg id="Capa_1" enable-background="new 0 0 512 512" height="512" viewBox="0 0 512 512" width="512" xmlns="http://www.w3.org/2000/svg"><g><path d="m90 436.5h30v45h-30z" fill="#453d81"/><path d="m392 436.5h30v45h-30z" fill="#2e2654"/><path d="m30 60.5v391h452v-391z" fill="#ffc336"/><path d="m256 60.5h226v391h-226z" fill="#f09b00"/><path d="m60 120.5h392v90h-392z" fill="#ffe67a"/><path d="m256 120.5h196v90h-196z" fill="#ffc336"/><path d="m60 240.5h181v181h-181z" fill="#ffe67a"/><path d="m271 240.5h181v181h-181z" fill="#ffc336"/><path d="m211 150.5h90v30h-90z" fill="#5e54ac"/><path d="m301 300.5h30v60h-30z" fill="#453d81"/><path d="m181 300.5h30v60h-30z" fill="#5e54ac"/><path d="m256 150.5h45v30h-45z" fill="#453d81"/><path d="m0 30.5h512v60h-512z" fill="#ffe67a"/><path d="m256 30.5h256v60h-256z" fill="#ffc336"/></g></svg>