<svg xmlns="http://www.w3.org/2000/svg" viewBox="0 0 500 500"><g id="freepik--Floor--inject-4"><g id="freepik--floor--inject-4"><polygon points="249.99 462.56 29.22 335.1 249.99 207.8 470.76 335.1 249.99 462.56" style="fill:#407BFF"></polygon><polygon points="29.22 335.1 29.22 345.67 249.99 473.13 249.99 462.56 29.22 335.1" style="fill:#407BFF"></polygon><polygon points="29.22 335.1 29.22 345.67 249.99 473.13 249.99 462.56 29.22 335.1" style="opacity:0.15"></polygon><polygon points="249.99 473.13 470.76 345.67 470.76 335.1 249.99 462.56 249.99 473.13" style="fill:#407BFF"></polygon><polygon points="249.99 473.13 470.76 345.67 470.76 335.1 249.99 462.56 249.99 473.13" style="opacity:0.1"></polygon></g></g><g id="freepik--Plants--inject-4"><g id="freepik--plants--inject-4"><path d="M408.16,305.54c-.81-5.5,1.5-17.48,6.17-25.46s12.87-14.52,19.57-13.27c6.24,1.16,6.73,9.05.28,15.27S413.89,300,412,309.41l-1.08,8.27Z" style="fill:#407BFF"></path><g style="opacity:0.15"><path d="M408.16,305.54c-.81-5.5,1.5-17.48,6.17-25.46s12.87-14.52,19.57-13.27c6.24,1.16,6.73,9.05.28,15.27S413.89,300,412,309.41l-1.08,8.27Z"></path></g><path d="M408.86,313.13a.41.41,0,0,0,.31-.38c.93-19.32,13.89-36.81,22.49-41.51a.41.41,0,1,0-.39-.72c-8.76,4.8-22,22.58-22.91,42.19a.4.4,0,0,0,.38.43Z" style="fill:#fff"></path><path d="M408.73,329.37c.43-3.22,3.46-8.88,8.95-14,6.08-5.65,14.32-9.05,15.76-13,1.73-4.71-2.55-8.29-9.37-6.42s-17.63,13.14-17.5,27.69Z" style="fill:#407BFF"></path><g style="opacity:0.30000000000000004"><path d="M408.73,329.37c.43-3.22,3.46-8.88,8.95-14,6.08-5.65,14.32-9.05,15.76-13,1.73-4.71-2.55-8.29-9.37-6.42s-17.63,13.14-17.5,27.69Z"></path></g><path d="M406.91,326.32a.41.41,0,0,0,.31-.31c3.4-16.93,14.85-24.38,20.43-25.95a.41.41,0,0,0,.28-.5.39.39,0,0,0-.5-.28c-6.17,1.73-17.54,9.28-21,26.57a.41.41,0,0,0,.32.48A.33.33,0,0,0,406.91,326.32Z" style="fill:#fff"></path></g><g id="freepik--plants--inject-4"><path d="M93.85,300.15s.71-11.9-3.51-22-11.21-17.1-18.54-19-14.54,3.91-7.4,10,20.44,13.35,23.88,32.06Z" style="fill:#407BFF"></path><g style="opacity:0.15"><path d="M93.85,300.15s.71-11.9-3.51-22-11.21-17.1-18.54-19-14.54,3.91-7.4,10,20.44,13.35,23.88,32.06Z"></path></g><path d="M92.2,296.74h.08a.4.4,0,0,0,.31-.48c-4.48-20.7-18-31.38-24.54-34.13a.41.41,0,0,0-.53.21.4.4,0,0,0,.22.53c6.39,2.7,19.66,13.19,24.06,33.56A.41.41,0,0,0,92.2,296.74Z" style="fill:#fff"></path><path d="M62.43,290.91c.17,1.59,1.44,2.8,2.66,3.82s2.55,2.12,2.88,3.68c.67,3.14-3,6-2.24,9.14a5,5,0,0,0,2.63,2.92,32.35,32.35,0,0,0,3.08,1.31,12.35,12.35,0,0,0,1.54.38A7.17,7.17,0,0,1,77.2,314c1.72,1.86,1.5,4.72,2.11,7.18A10.52,10.52,0,0,0,84.94,328c2.28,1.09,6,1.71,7,.86.73-.65.11-3.51.39-4.45A40,40,0,0,0,93.7,317a14.52,14.52,0,0,1,.59-3.35c.41-1.22.8-2.43,1.19-3.65s1.06-2.26,1-3.73a14.08,14.08,0,0,0-.94-4.13q-.68-2-1.38-3.93a20,20,0,0,0-2.07-4.45,10.46,10.46,0,0,0-7-4.42c-2.33-.35-4.9.19-7.15-.65s-4.16-2.12-6.48-2.7a8.28,8.28,0,0,0-7.18,1.21A4.38,4.38,0,0,0,62.43,290.91Z" style="fill:#407BFF"></path><g style="opacity:0.30000000000000004"><path d="M62.43,290.91c.17,1.59,1.44,2.8,2.66,3.82s2.55,2.12,2.88,3.68c.67,3.14-3,6-2.24,9.14a5,5,0,0,0,2.63,2.92,32.35,32.35,0,0,0,3.08,1.31,12.35,12.35,0,0,0,1.54.38A7.17,7.17,0,0,1,77.2,314c1.72,1.86,1.5,4.72,2.11,7.18A10.52,10.52,0,0,0,84.94,328c2.28,1.09,6,1.71,7,.86.73-.65.11-3.51.39-4.45A40,40,0,0,0,93.7,317a14.52,14.52,0,0,1,.59-3.35c.41-1.22.8-2.43,1.19-3.65s1.06-2.26,1-3.73a14.08,14.08,0,0,0-.94-4.13q-.68-2-1.38-3.93a20,20,0,0,0-2.07-4.45,10.46,10.46,0,0,0-7-4.42c-2.33-.35-4.9.19-7.15-.65s-4.16-2.12-6.48-2.7a8.28,8.28,0,0,0-7.18,1.21A4.38,4.38,0,0,0,62.43,290.91Z"></path></g><path d="M93.13,322.51h0a.35.35,0,0,0,.36-.35c.7-22.5-20.35-32.09-25.59-33.26a.36.36,0,0,0-.43.27.35.35,0,0,0,.27.43c5.13,1.15,25.72,10.53,25,32.54A.35.35,0,0,0,93.13,322.51Z" style="fill:#fff"></path><path d="M71.17,304.74a.36.36,0,0,0,.2-.06,19.11,19.11,0,0,1,16.18-.94.35.35,0,0,0,.46-.21.36.36,0,0,0-.21-.46,19.77,19.77,0,0,0-16.82,1,.37.37,0,0,0-.1.5A.34.34,0,0,0,71.17,304.74Z" style="fill:#fff"></path></g></g><g id="freepik--Clouds--inject-4"><path id="freepik--Cloud--inject-4" d="M90.62,42.58l-7.1,4.1c0-.32.06-.63.06-.94V43.68c0-3.66-2.57-5.15-5.74-3.31a11,11,0,0,0-3.43,3.29c-.52-4.61-4.13-6.32-8.52-3.79-4.75,2.74-8.59,9.4-8.59,14.88v3.08A8.19,8.19,0,0,0,58,61.4l-5.9,3.41a7,7,0,0,0-3.18,5.52c0,2,1.42,2.85,3.18,1.83l38.5-22.22a7.06,7.06,0,0,0,3.19-5.52C93.81,42.39,92.38,41.56,90.62,42.58Z" style="fill:#ebebeb"></path><g id="freepik--clouds--inject-4"><path d="M403.12,36.33l9.41,5.44a10.63,10.63,0,0,1-.08-1.25V37.79c0-4.85,3.41-6.82,7.61-4.39a14.77,14.77,0,0,1,4.54,4.36c.69-6.1,5.47-8.37,11.29-5,6.29,3.63,11.39,12.46,11.39,19.72v4.08a10.67,10.67,0,0,1-1,4.73l7.82,4.52a9.32,9.32,0,0,1,4.22,7.31c0,2.69-1.89,3.78-4.22,2.43l-51-29.45a9.32,9.32,0,0,1-4.22-7.31C398.9,36.08,400.79,35,403.12,36.33Z" style="fill:#ebebeb"></path><path d="M362.83,63.76l7.11,4.1a7.42,7.42,0,0,1-.06-.94v-2c0-3.67,2.57-5.15,5.74-3.32A11.11,11.11,0,0,1,379,64.84c.52-4.6,4.14-6.32,8.52-3.79,4.75,2.74,8.6,9.41,8.6,14.89V79a8,8,0,0,1-.73,3.56l5.9,3.41a7.06,7.06,0,0,1,3.19,5.52c0,2-1.43,2.85-3.19,1.84l-38.5-22.23a7,7,0,0,1-3.18-5.52C359.65,63.57,361.07,62.75,362.83,63.76Z" style="fill:#ebebeb"></path></g></g><g id="freepik--Home--inject-4"><g id="freepik--Walls--inject-4"><polygon points="249.96 236.91 249.96 78.11 403.98 167.04 403.98 325.83 249.96 236.91" style="fill:#407BFF"></polygon><g style="opacity:0.7000000000000001"><polygon points="249.96 236.91 249.96 78.11 403.98 167.04 403.98 325.83 249.96 236.91" style="fill:#fff"></polygon></g><polygon points="249.96 236.91 249.96 78.11 95.94 167.04 95.94 325.83 249.96 236.91" style="fill:#407BFF"></polygon><g style="opacity:0.7000000000000001"><polygon points="249.96 236.91 249.96 78.11 95.94 167.04 95.94 325.83 249.96 236.91" style="fill:#fff"></polygon></g><g style="opacity:0.1"><polygon points="249.96 236.91 249.96 78.11 95.94 167.04 95.94 325.83 249.96 236.91"></polygon></g><polygon points="249.98 414.76 403.98 325.83 249.96 236.91 95.94 325.83 249.98 414.76" style="fill:#407BFF"></polygon><polygon points="249.98 414.76 403.98 325.83 249.96 236.91 95.94 325.83 249.98 414.76" style="opacity:0.15"></polygon><polygon points="249.96 421.11 249.98 414.76 403.98 325.83 403.98 167.04 409.48 170.21 408.82 329.39 249.96 421.11" style="fill:#37474f"></polygon><polygon points="249.99 421.11 249.98 414.76 95.97 325.83 95.97 167.04 90.47 163.86 91.14 329.39 249.99 421.11" style="fill:#455a64"></polygon><polygon points="403.98 325.83 403.98 317.01 249.96 228.09 249.96 236.91 403.98 325.83" style="fill:#fafafa"></polygon><polygon points="95.94 325.83 95.94 317.01 249.96 228.09 249.96 236.91 95.94 325.83" style="fill:#ebebeb"></polygon></g><g id="freepik--Roof--inject-4"><polygon points="156.45 62.23 73.94 167.04 128.95 198.8 211.46 93.99 156.45 62.23" style="fill:#455a64"></polygon><polygon points="73.94 167.04 73.94 173.39 128.95 205.15 128.95 198.8 73.94 167.04" style="fill:#263238"></polygon><polygon points="211.46 93.99 211.46 100.35 128.95 205.15 128.95 198.8 211.46 93.99" style="fill:#37474f"></polygon><polygon points="258.9 79.63 156.45 62.23 321.47 157.51 423.92 174.9 258.9 79.63" style="fill:#37474f"></polygon><polygon points="211.46 100.35 321.47 163.86 321.47 157.51 211.46 93.99 211.46 100.35" style="fill:#263238"></polygon><polygon points="321.47 163.86 423.92 181.25 423.92 174.9 321.47 157.51 321.47 163.86" style="fill:#455a64"></polygon><polygon points="102.67 108.74 123.45 120.74 123.45 158.8 102.67 146.8 102.67 108.74" style="fill:#e0e0e0"></polygon><polygon points="123.45 120.74 144.22 108.74 144.22 132.41 123.45 158.8 123.45 120.74" style="fill:#f0f0f0"></polygon><polygon points="123.45 88.33 100.51 101.54 100.51 107.54 123.45 120.74 146.38 107.54 146.38 101.54 123.45 88.33" style="fill:#455a64"></polygon><polygon points="123.45 92.75 123.45 110.31 108.2 101.54 123.45 92.75" style="fill:#37474f"></polygon><polygon points="123.45 92.75 138.69 101.54 123.45 110.31 123.45 92.75" style="fill:#263238"></polygon><polygon points="100.51 107.54 123.45 120.74 123.45 114.74 100.51 101.54 100.51 107.54" style="fill:#37474f"></polygon><polygon points="146.38 107.54 123.45 120.74 123.45 114.74 146.38 101.54 146.38 107.54" style="fill:#263238"></polygon></g></g><g id="freepik--Window--inject-4"><g id="freepik--window--inject-4"><polygon points="352.52 252.93 350.56 254.06 301.48 225.73 303.44 224.59 352.52 252.93" style="fill:#455a64"></polygon><polygon points="303.44 224.59 350.56 251.79 350.56 204.76 303.44 177.56 303.44 224.59" style="fill:#407BFF"></polygon><g style="opacity:0.85"><polygon points="303.44 224.59 350.56 251.79 350.56 204.76 303.44 177.56 303.44 224.59" style="fill:#fff"></polygon></g><polygon points="326.02 189.46 326.02 238.76 324.05 237.63 324.05 188.33 326.02 189.46" style="fill:#37474f"></polygon><polygon points="327 188.89 326.02 189.46 326.02 238.76 327 238.19 327 188.89" style="fill:#263238"></polygon><polygon points="326.02 189.46 324.05 188.33 325.04 187.76 327 188.89 326.02 189.46" style="fill:#fafafa"></polygon><path d="M299.52,226.86l53,30.6V203.63l-53-30.6Zm2-50.43,49.07,28.33v49.3l-49.07-28.33Z" style="fill:#37474f"></path><polygon points="301.48 225.73 303.44 224.59 303.44 177.56 301.48 176.43 301.48 225.73" style="fill:#263238"></polygon><polygon points="299.52 173.03 301.48 171.89 354.48 202.49 352.52 203.63 299.52 173.03" style="fill:#455a64"></polygon><polygon points="354.48 202.49 352.52 203.63 352.52 257.46 354.48 256.33 354.48 202.49" style="fill:#263238"></polygon><polygon points="326.02 190.59 324.06 189.46 324.06 190.59 326.02 191.73 326.02 190.59" style="fill:#263238"></polygon><polygon points="326.02 191.73 327 191.16 326.02 190.59 326.02 191.73"></polygon></g></g><g id="freepik--Carpet--inject-4"><polygon id="freepik--Shadow--inject-4" points="259.76 317.76 307.64 345.47 230.99 389.61 183.15 361.9 259.76 317.76" style="opacity:0.15"></polygon><g id="freepik--carpet--inject-4"><polygon points="259.16 317.17 305.05 343.73 231.59 386.02 185.75 359.47 259.16 317.17" style="fill:#407BFF"></polygon><polygon points="259.16 317.17 305.05 343.73 231.59 386.02 185.75 359.47 259.16 317.17" style="fill:#fff;opacity:0.45"></polygon><path d="M231.63,386.33a.37.37,0,0,1-.14,0L185.61,359.8a.29.29,0,0,1-.14-.25.27.27,0,0,1,.14-.24L259,316.92a.28.28,0,0,1,.28,0l45.89,26.49a.31.31,0,0,1,.14.25.29.29,0,0,1-.14.24l-73.42,42.39A.33.33,0,0,1,231.63,386.33Zm-45.32-26.78,45.32,26.17,72.85-42.06-45.32-26.17Z" style="fill:#fafafa"></path><path d="M259.16,317.45a.27.27,0,0,1-.24-.14.29.29,0,0,1,.1-.39l2-1.16a.29.29,0,0,1,.39.1.29.29,0,0,1-.11.39l-2,1.16A.23.23,0,0,1,259.16,317.45Z" style="fill:#fafafa"></path><path d="M261.72,318.92a.29.29,0,0,1-.25-.14.29.29,0,0,1,.1-.39l2-1.16a.28.28,0,1,1,.29.49l-2,1.16A.27.27,0,0,1,261.72,318.92Z" style="fill:#fafafa"></path><path d="M264.27,320.39a.3.3,0,0,1-.25-.14.29.29,0,0,1,.11-.39l2-1.16a.28.28,0,1,1,.28.48l-2,1.17A.25.25,0,0,1,264.27,320.39Z" style="fill:#fafafa"></path><path d="M266.82,321.86a.27.27,0,0,1-.24-.14.28.28,0,0,1,.1-.39l2-1.16a.27.27,0,0,1,.38.1.27.27,0,0,1-.1.38l-2,1.17A.23.23,0,0,1,266.82,321.86Z" style="fill:#fafafa"></path><path d="M269.37,323.33a.28.28,0,0,1-.24-.14.29.29,0,0,1,.1-.39l2-1.16a.28.28,0,1,1,.28.48l-2,1.17A.28.28,0,0,1,269.37,323.33Z" style="fill:#fafafa"></path><path d="M271.93,324.8a.29.29,0,0,1-.25-.14.29.29,0,0,1,.1-.39l2-1.17a.28.28,0,0,1,.39.11.28.28,0,0,1-.1.38l-2,1.17A.27.27,0,0,1,271.93,324.8Z" style="fill:#fafafa"></path><path d="M274.48,326.27a.3.3,0,0,1-.25-.14.29.29,0,0,1,.11-.39l2-1.17a.27.27,0,0,1,.38.11.28.28,0,0,1-.1.38l-2,1.17A.23.23,0,0,1,274.48,326.27Z" style="fill:#fafafa"></path><path d="M277,327.74a.27.27,0,0,1-.24-.14.29.29,0,0,1,.1-.39l2-1.17a.29.29,0,0,1,.39.11.28.28,0,0,1-.11.38l-2,1.17A.23.23,0,0,1,277,327.74Z" style="fill:#fafafa"></path><path d="M279.58,329.21a.28.28,0,0,1-.24-.14.29.29,0,0,1,.1-.39l2-1.17a.28.28,0,0,1,.39.11.28.28,0,0,1-.1.38l-2,1.17A.28.28,0,0,1,279.58,329.21Z" style="fill:#fafafa"></path><path d="M282.14,330.68a.29.29,0,0,1-.25-.14.29.29,0,0,1,.1-.39l2-1.17a.27.27,0,0,1,.38.11.28.28,0,0,1-.1.38l-2,1.17A.27.27,0,0,1,282.14,330.68Z" style="fill:#fafafa"></path><path d="M284.69,332.15a.3.3,0,0,1-.25-.14.29.29,0,0,1,.11-.39l2-1.17a.28.28,0,0,1,.28.49l-2,1.17A.23.23,0,0,1,284.69,332.15Z" style="fill:#fafafa"></path><path d="M287.24,333.62a.27.27,0,0,1-.24-.14.29.29,0,0,1,.1-.39l2-1.17a.29.29,0,0,1,.39.1.29.29,0,0,1-.11.39l-2,1.17A.33.33,0,0,1,287.24,333.62Z" style="fill:#fafafa"></path><path d="M289.79,335.09a.28.28,0,0,1-.24-.14.29.29,0,0,1,.1-.39l2-1.17a.28.28,0,0,1,.29.49l-2,1.17A.42.42,0,0,1,289.79,335.09Z" style="fill:#fafafa"></path><path d="M292.35,336.56a.28.28,0,0,1-.14-.53l2-1.17a.28.28,0,0,1,.38.1.29.29,0,0,1-.1.39l-2,1.17A.37.37,0,0,1,292.35,336.56Z" style="fill:#fafafa"></path><path d="M294.9,338a.28.28,0,0,1-.14-.52l2-1.17a.27.27,0,0,1,.38.1.28.28,0,0,1-.1.39L295,338A.32.32,0,0,1,294.9,338Z" style="fill:#fafafa"></path><path d="M297.45,339.49a.27.27,0,0,1-.24-.14.28.28,0,0,1,.1-.38l2-1.17a.29.29,0,0,1,.39.1.28.28,0,0,1-.11.39l-2,1.17A.32.32,0,0,1,297.45,339.49Z" style="fill:#fafafa"></path><path d="M300,341a.29.29,0,0,1-.25-.14.28.28,0,0,1,.1-.38l2-1.17a.28.28,0,1,1,.29.49l-2,1.17Z" style="fill:#fafafa"></path><path d="M302.56,342.43a.3.3,0,0,1-.25-.14.28.28,0,0,1,.11-.38l2-1.17a.28.28,0,0,1,.38.1.29.29,0,0,1-.1.39l-2,1.17A.35.35,0,0,1,302.56,342.43Z" style="fill:#fafafa"></path><path d="M305.11,343.9a.28.28,0,0,1-.14-.52l2-1.17a.29.29,0,0,1,.39.1.29.29,0,0,1-.11.39l-2,1.17A.32.32,0,0,1,305.11,343.9Z" style="fill:#fafafa"></path><path d="M183.7,361a.27.27,0,0,1-.24-.14.29.29,0,0,1,.1-.39l2-1.17a.28.28,0,1,1,.28.49l-2,1.17A.23.23,0,0,1,183.7,361Z" style="fill:#fafafa"></path><path d="M186.26,362.49a.29.29,0,0,1-.25-.14.29.29,0,0,1,.1-.39l2-1.17a.28.28,0,0,1,.39.11.28.28,0,0,1-.1.38l-2,1.17A.27.27,0,0,1,186.26,362.49Z" style="fill:#fafafa"></path><path d="M188.81,364a.3.3,0,0,1-.25-.14.29.29,0,0,1,.11-.39l2-1.17a.27.27,0,0,1,.38.11.28.28,0,0,1-.1.38l-2,1.17A.25.25,0,0,1,188.81,364Z" style="fill:#fafafa"></path><path d="M191.36,365.43a.27.27,0,0,1-.24-.14.28.28,0,0,1,.1-.39l2-1.17a.28.28,0,0,1,.28.49l-2,1.17A.33.33,0,0,1,191.36,365.43Z" style="fill:#fafafa"></path><path d="M193.91,366.9a.3.3,0,0,1-.24-.14.29.29,0,0,1,.1-.39l2-1.17a.29.29,0,0,1,.39.1.28.28,0,0,1-.11.39l-2,1.17A.42.42,0,0,1,193.91,366.9Z" style="fill:#fafafa"></path><path d="M196.47,368.37a.29.29,0,0,1-.25-.15.28.28,0,0,1,.1-.38l2-1.17a.28.28,0,0,1,.29.49l-2,1.17A.43.43,0,0,1,196.47,368.37Z" style="fill:#fafafa"></path><path d="M199,369.84a.31.31,0,0,1-.25-.15.28.28,0,0,1,.11-.38l2-1.17a.28.28,0,0,1,.38.1.29.29,0,0,1-.1.39l-2,1.17A.37.37,0,0,1,199,369.84Z" style="fill:#fafafa"></path><path d="M201.57,371.3a.28.28,0,0,1-.14-.52l2-1.17a.29.29,0,0,1,.39.1.29.29,0,0,1-.11.39l-2,1.17A.32.32,0,0,1,201.57,371.3Z" style="fill:#fafafa"></path><path d="M204.12,372.77a.28.28,0,0,1-.14-.52l2-1.17a.28.28,0,0,1,.29.49l-2,1.17Z" style="fill:#fafafa"></path><path d="M206.68,374.24a.29.29,0,0,1-.25-.14.28.28,0,0,1,.1-.38l2-1.17a.28.28,0,0,1,.38.1.29.29,0,0,1-.1.39l-2,1.17Z" style="fill:#fafafa"></path><path d="M209.23,375.71a.3.3,0,0,1-.25-.14.28.28,0,0,1,.11-.38l2-1.17a.28.28,0,0,1,.38.1.28.28,0,0,1-.1.39l-2,1.17A.32.32,0,0,1,209.23,375.71Z" style="fill:#fafafa"></path><path d="M211.78,377.18a.27.27,0,0,1-.24-.14.28.28,0,0,1,.1-.38l2-1.17a.29.29,0,0,1,.39.1.29.29,0,0,1-.11.39l-2,1.16A.23.23,0,0,1,211.78,377.18Z" style="fill:#fafafa"></path><path d="M214.33,378.65a.28.28,0,0,1-.24-.14.28.28,0,0,1,.1-.38l2-1.17a.28.28,0,0,1,.29.49l-2,1.16A.28.28,0,0,1,214.33,378.65Z" style="fill:#fafafa"></path><path d="M216.89,380.12a.29.29,0,0,1-.25-.14.27.27,0,0,1,.11-.38l2-1.17a.28.28,0,0,1,.38.1.29.29,0,0,1-.1.39l-2,1.16A.27.27,0,0,1,216.89,380.12Z" style="fill:#fafafa"></path><path d="M219.44,381.59a.28.28,0,0,1-.14-.52l2-1.17a.27.27,0,0,1,.38.1.28.28,0,0,1-.1.39l-2,1.16A.23.23,0,0,1,219.44,381.59Z" style="fill:#fafafa"></path><path d="M222,383.06a.28.28,0,0,1-.24-.14.28.28,0,0,1,.1-.38l2-1.17a.29.29,0,0,1,.39.1.28.28,0,0,1-.11.39l-2,1.16A.23.23,0,0,1,222,383.06Z" style="fill:#fafafa"></path><path d="M224.55,384.53a.29.29,0,0,1-.25-.14.28.28,0,0,1,.1-.38l2-1.17a.28.28,0,0,1,.29.49l-2,1.16A.27.27,0,0,1,224.55,384.53Z" style="fill:#fafafa"></path><path d="M227.1,386a.3.3,0,0,1-.25-.14.29.29,0,0,1,.11-.39l2-1.16a.28.28,0,0,1,.38.1.28.28,0,0,1-.1.39l-2,1.16A.25.25,0,0,1,227.1,386Z" style="fill:#fafafa"></path><path d="M229.65,387.47a.27.27,0,0,1-.24-.14.28.28,0,0,1,.1-.39l2-1.16a.29.29,0,0,1,.39.1.28.28,0,0,1-.11.38l-2,1.17A.23.23,0,0,1,229.65,387.47Z" style="fill:#fafafa"></path><path d="M240.81,381a.33.33,0,0,1-.14,0L194.78,354.5a.28.28,0,1,1,.29-.49L241,380.5a.29.29,0,0,1,.1.39A.27.27,0,0,1,240.81,381Z" style="fill:#fafafa"></path><path d="M250,375.73a.27.27,0,0,1-.14,0L204,349.2a.29.29,0,0,1-.1-.39.28.28,0,0,1,.38-.1l45.89,26.49a.29.29,0,0,1,.1.39A.29.29,0,0,1,250,375.73Z" style="fill:#fafafa"></path><path d="M259.16,370.43a.23.23,0,0,1-.14,0L213.14,343.9a.28.28,0,1,1,.28-.49L259.3,369.9a.28.28,0,0,1,.1.39A.27.27,0,0,1,259.16,370.43Z" style="fill:#fafafa"></path><path d="M268.34,365.13a.28.28,0,0,1-.15,0L222.31,338.6a.28.28,0,0,1-.1-.38.28.28,0,0,1,.39-.11l45.88,26.49a.29.29,0,0,1,.1.39A.28.28,0,0,1,268.34,365.13Z" style="fill:#fafafa"></path><path d="M277.51,359.83a.32.32,0,0,1-.14,0l-45.88-26.5a.27.27,0,0,1-.1-.38.28.28,0,0,1,.38-.1l45.88,26.49a.28.28,0,0,1,.11.38A.3.3,0,0,1,277.51,359.83Z" style="fill:#fafafa"></path><path d="M286.69,354.53a.32.32,0,0,1-.14,0L240.66,328a.28.28,0,1,1,.29-.49L286.83,354a.28.28,0,0,1-.14.52Z" style="fill:#fafafa"></path><path d="M295.86,349.24a.37.37,0,0,1-.14,0l-45.88-26.49a.28.28,0,0,1-.1-.39.28.28,0,0,1,.38-.1L296,348.71a.28.28,0,0,1,.11.38A.29.29,0,0,1,295.86,349.24Z" style="fill:#fafafa"></path><path d="M222.46,381a.28.28,0,0,1-.2-.08.28.28,0,0,1-.09-.2V370.49l-13.42,2.58a.24.24,0,0,1-.23-.06.27.27,0,0,1-.11-.22V362.55L195,365.13a.34.34,0,0,1-.24-.06.29.29,0,0,1-.1-.22v-10.6a.29.29,0,0,1,.28-.28.28.28,0,0,1,.28.28v10.26l13.43-2.58a.24.24,0,0,1,.23.06.27.27,0,0,1,.11.22v10.24l13.42-2.58a.3.3,0,0,1,.23.06.27.27,0,0,1,.11.22v10.31l18.07,0h0a.29.29,0,0,1,0,.57l-18.35,0Z" style="fill:#fafafa"></path><path d="M240.81,370.43a.27.27,0,0,1-.28-.28V359.89l-13.42,2.59a.34.34,0,0,1-.24-.06.32.32,0,0,1-.1-.22V352l-13.43,2.58a.24.24,0,0,1-.23-.06.26.26,0,0,1-.11-.21v-10.6a.29.29,0,1,1,.57,0v10.26L227,351.33a.32.32,0,0,1,.23.06.29.29,0,0,1,.1.22v10.25l13.43-2.59a.28.28,0,0,1,.33.28v10.32l18.07,0h0a.28.28,0,1,1,0,.56l-18.35,0Z" style="fill:#fafafa"></path><path d="M259.17,359.84a.31.31,0,0,1-.29-.29V349.3l-13.42,2.58a.3.3,0,0,1-.23-.06.27.27,0,0,1-.11-.22V341.35l-13.42,2.59a.34.34,0,0,1-.24-.06.32.32,0,0,1-.1-.22v-10.6a.28.28,0,0,1,.28-.28.27.27,0,0,1,.28.28v10.26l13.43-2.58a.24.24,0,0,1,.23.06.26.26,0,0,1,.11.21v10.25l13.42-2.58a.24.24,0,0,1,.23.06.27.27,0,0,1,.11.22v10.31l18.07,0h0a.29.29,0,0,1,0,.57l-18.35,0Z" style="fill:#fafafa"></path><path d="M277.52,349.24a.27.27,0,0,1-.28-.28V338.7l-13.42,2.58a.26.26,0,0,1-.24-.06.28.28,0,0,1-.1-.21V330.76L250,333.34a.29.29,0,0,1-.34-.28v-10.6a.29.29,0,0,1,.57,0v10.26l13.43-2.58a.27.27,0,0,1,.23.06.26.26,0,0,1,.1.22v10.24l13.43-2.58a.32.32,0,0,1,.23.06.29.29,0,0,1,.1.22v10.31h18.07a.28.28,0,0,1,.29.28.29.29,0,0,1-.29.28l-18.35,0Z" style="fill:#fafafa"></path></g></g><g id="freepik--Lamp--inject-4"><path id="freepik--shadow--inject-4" d="M231.91,256.06c-5.66,3.27-5.66,8.57,0,11.84s14.85,3.27,20.51,0,5.67-8.57,0-11.84S237.58,252.79,231.91,256.06Z" style="opacity:0.15"></path><g id="freepik--lamp--inject-4"><path d="M235.06,256.2c-3.92,2.27-3.92,5.94,0,8.21a15.74,15.74,0,0,0,14.21,0c3.93-2.27,3.93-5.94,0-8.21A15.74,15.74,0,0,0,235.06,256.2Z" style="fill:#37474f"></path><path d="M252.22,260.3h0c0-1.48-1-3-2.94-4.1a15.74,15.74,0,0,0-14.21,0c-2,1.13-2.93,2.62-2.93,4.1h0v1.39h0c0,1.47,1,2.93,2.94,4a15.68,15.68,0,0,0,14.21,0c1.94-1.11,2.92-2.57,2.95-4h0Z" style="fill:#263238"></path><path d="M235.06,256.2c-3.92,2.27-3.92,5.94,0,8.21a15.74,15.74,0,0,0,14.21,0c3.93-2.27,3.93-5.94,0-8.21A15.74,15.74,0,0,0,235.06,256.2Z" style="fill:#37474f"></path><path d="M243.25,194.45h-2.16v65.2h0a.5.5,0,0,0,.3.5,1.72,1.72,0,0,0,1.53,0,.5.5,0,0,0,.31-.5h0Z" style="fill:#455a64"></path><path d="M256.28,192.39h0l-3.48-16.65H231.53l-3.48,16.65h0c-.95,2.65.35,5.52,3.91,7.58,5.63,3.25,14.76,3.25,20.39,0C255.93,197.91,257.23,195,256.28,192.39Z" style="fill:#f5f5f5"></path><path d="M234.6,180.75a16.73,16.73,0,0,0,15.13,0c4.18-2.41,4.18-6.33,0-8.74a16.73,16.73,0,0,0-15.13,0C230.43,174.42,230.43,178.34,234.6,180.75Z" style="fill:#fafafa"></path><path d="M242.17,181a13.37,13.37,0,0,1-6.56-1.55c-1.53-.89-2.37-2-2.37-3.11s.84-2.22,2.37-3.11a14.64,14.64,0,0,1,13.11,0c1.53.89,2.37,2,2.37,3.11s-.84,2.22-2.37,3.11A13.33,13.33,0,0,1,242.17,181Z" style="fill:#e0e0e0"></path></g></g><g id="freepik--Table--inject-4"><g id="freepik--table--inject-4"><g id="freepik--table--inject-4"><path d="M305.69,313.53a1,1,0,0,1,.57-.8,3.07,3.07,0,0,1,2.77,0,1,1,0,0,1,.57.8L309,324.84h0a.7.7,0,0,1-.4.55,2.18,2.18,0,0,1-2,0,.68.68,0,0,1-.4-.55h0Z" style="fill:#455a64"></path><path d="M309,312.73a3.07,3.07,0,0,0-2.77,0,1,1,0,0,0-.57.8l.25,4.83a19.31,19.31,0,0,0,3.28,2.73l.38-7.56A1,1,0,0,0,309,312.73Z" style="fill:#263238"></path><path d="M355.09,313.53a1,1,0,0,0-.57-.8,3.07,3.07,0,0,0-2.77,0,1,1,0,0,0-.57.8l.57,11.31h0a.7.7,0,0,0,.4.55,2.18,2.18,0,0,0,2,0,.66.66,0,0,0,.4-.55h0Z" style="fill:#455a64"></path><path d="M354.52,312.73a3.07,3.07,0,0,0-2.77,0,1,1,0,0,0-.57.8l.39,7.74a20.51,20.51,0,0,0,3.26-2.62l.26-5.12A1,1,0,0,0,354.52,312.73Z" style="fill:#263238"></path><path d="M332.48,322.19a1,1,0,0,0-.57-.8,3.07,3.07,0,0,0-2.77,0,1,1,0,0,0-.57.8l.57,11.31h0a.69.69,0,0,0,.41.55,2.16,2.16,0,0,0,1.95,0,.69.69,0,0,0,.41-.55h0Z" style="fill:#455a64"></path><path d="M332.25,326.72l.23-4.53a1,1,0,0,0-.57-.8,3.07,3.07,0,0,0-2.77,0,1,1,0,0,0-.57.8l.23,4.53Q330.53,326.79,332.25,326.72Z" style="fill:#263238"></path><path d="M358.58,306.46h0c0-4.15-2.71-8.29-8.19-11.45-10.95-6.33-28.72-6.33-39.67,0-5.48,3.16-8.2,7.3-8.19,11.45h0v2.22h0c.07,4.1,2.81,8.17,8.22,11.3,10.95,6.32,28.72,6.32,39.67,0,5.41-3.13,8.15-7.2,8.22-11.3h0Z" style="fill:#407BFF"></path><path d="M310.69,295c-11,6.32-11,16.58,0,22.9s28.72,6.33,39.67,0,11-16.58,0-22.9S321.64,288.68,310.69,295Z" style="fill:#407BFF"></path><g style="opacity:0.45"><path d="M310.69,295c-11,6.32-11,16.58,0,22.9s28.72,6.33,39.67,0,11-16.58,0-22.9S321.64,288.68,310.69,295Z" style="fill:#fff"></path></g></g><g id="freepik--Bookv--inject-4"><polygon points="333.44 311.33 323.13 317.25 308.83 308.99 319.13 303.07 333.44 311.33" style="fill:#455a64"></polygon><path d="M323,316.87l10-5.78a3.48,3.48,0,0,1,.05-2.18l-9.95,5.73A8.77,8.77,0,0,0,323,316.87Z" style="fill:#f5f5f5"></path><path d="M323.56,314a1.79,1.79,0,0,0-.8,1.39V317c0,.52.36.72.8.47l9.88-5.71v-.4l-9.77,5.61c-.26.16-.48,0-.48-.28v-1.5a1.07,1.07,0,0,1,.48-.84l9.76-5.61v-.46Z" style="fill:#263238"></path><path d="M333.44,308.25,319.13,300l-9.88,5.71a1.79,1.79,0,0,0-.8,1.39v1.62a.55.55,0,0,0,.24.52l14.3,8.26a.56.56,0,0,1-.23-.51v-1.63a1.79,1.79,0,0,1,.8-1.39Z" style="fill:#455a64"></path><path d="M323,314.56a1.67,1.67,0,0,0-.23.79V317a.56.56,0,0,0,.23.51l-14.3-8.26a.55.55,0,0,1-.24-.52v-1.62a1.58,1.58,0,0,1,.24-.79Z" style="fill:#37474f"></path></g><g id="freepik--Pot--inject-4"><g style="opacity:0.05"><path d="M343.12,298.44c2.45,1.42,2.45,3.72,0,5.14a9.83,9.83,0,0,1-8.9,0c-2.46-1.42-2.46-3.72,0-5.14A9.83,9.83,0,0,1,343.12,298.44Z"></path></g><path d="M334.75,301.33c-2.14-2.19-3.39-7.64-1.31-9.37h10.62c2.09,1.73.83,7.18-1.3,9.37l-.06.06-.08.07-.19.17-.05,0-.16.12a2.2,2.2,0,0,1-.28.18,7.07,7.07,0,0,1-6.37,0h0a1.67,1.67,0,0,1-.28-.18l-.15-.11-.06-.05-.19-.17-.09-.08Z" style="fill:#ebebeb"></path><path d="M343.14,291.26c2.42,1.4,2.42,3.67,0,5.07a9.68,9.68,0,0,1-8.77,0c-2.43-1.4-2.43-3.67,0-5.07A9.68,9.68,0,0,1,343.14,291.26Z" style="fill:#fafafa"></path><path d="M341.42,292.26c1.48.85,1.48,2.23,0,3.08a5.89,5.89,0,0,1-5.33,0c-1.48-.85-1.48-2.23,0-3.08A5.83,5.83,0,0,1,341.42,292.26Z" style="fill:#ebebeb"></path><path d="M336.09,293.72a5.89,5.89,0,0,1,5.33,0,2.44,2.44,0,0,1,.89.81,2.63,2.63,0,0,1-.89.81,5.89,5.89,0,0,1-5.33,0,2.54,2.54,0,0,1-.89-.81A2.36,2.36,0,0,1,336.09,293.72Z" style="fill:#e0e0e0"></path><path d="M341.1,294.53A12,12,0,0,0,343,292c.89-1.58,1.05-3.69.59-3.95s-2.33,1.85-2.33,1.85a11.6,11.6,0,0,0,.19-2.69c-.07-1.41-.42-2.68-.82-2.94s-1.3,1.51-1.69,2.8-.61,2.34-.61,2.34a21,21,0,0,0-.69-3c-.47-1.33-.9-1.63-1.23-1.5s-.54.75-.64,2.53a17.14,17.14,0,0,0,.08,2.54s-.66-.73-1.4-1.43-1.15-.89-1.38-.74-.29,1.35,1,3.61a12.61,12.61,0,0,0,2.35,3.11S338.14,295.64,341.1,294.53Z" style="fill:#407BFF"></path><g style="opacity:0.30000000000000004"><path d="M341.1,294.53A12,12,0,0,0,343,292c.89-1.58,1.05-3.69.59-3.95s-2.33,1.85-2.33,1.85a11.6,11.6,0,0,0,.19-2.69c-.07-1.41-.42-2.68-.82-2.94s-1.3,1.51-1.69,2.8-.61,2.34-.61,2.34a21,21,0,0,0-.69-3c-.47-1.33-.9-1.63-1.23-1.5s-.54.75-.64,2.53a17.14,17.14,0,0,0,.08,2.54s-.66-.73-1.4-1.43-1.15-.89-1.38-.74-.29,1.35,1,3.61a12.61,12.61,0,0,0,2.35,3.11S338.14,295.64,341.1,294.53Z"></path></g></g></g></g><g id="freepik--Characters--inject-4"><path id="freepik--shadow--inject-4" d="M250.47,316.52c-5.43-3.14-13.12-4.2-20.06-3.16L246.62,304c1.5-.87,1.5-2.27,0-3.13l-40.36-23.3a6,6,0,0,0-5.43,0l-86.27,49.76c-1.5.87-1.5,2.27,0,3.13L155,353.79a6,6,0,0,0,5.43,0l19.83-11.45c-2.82,3.92-1.48,8.6,4,11.79,7.3,4.21,19.14,4.21,26.45,0s7.3-11.06,0-15.27c-5.53-3.19-13.65-4-20.43-2.33l5.79-3.34c5.25,2.33,12.79,2.1,17.59-.68a9.08,9.08,0,0,0,2.88-2.48,14.69,14.69,0,0,0,4.29,3.61c8.18,4.72,21.46,4.72,29.64,0S258.66,321.25,250.47,316.52Z" style="opacity:0.15"></path><g id="freepik--family-on-the-couch--inject-4"><g id="freepik--Couch--inject-4"><path d="M156.8,343.47h-5.71l.91,5.58h0a1,1,0,0,0,.55.69,3.07,3.07,0,0,0,2.77,0,1,1,0,0,0,.55-.69h0Z" style="fill:#455a64"></path><path d="M127.72,326.56H122l.91,5.57h0a1,1,0,0,0,.55.69,3.07,3.07,0,0,0,2.77,0,1,1,0,0,0,.55-.69h0Z" style="fill:#455a64"></path><path d="M239.7,300.17H234l.91,5.58h0a1,1,0,0,0,.55.69,3.07,3.07,0,0,0,2.77,0,1,1,0,0,0,.55-.69h0Z" style="fill:#263238"></path><path d="M210.62,283.26h-5.71l.91,5.57h0a1,1,0,0,0,.55.69,3.07,3.07,0,0,0,2.77,0,1,1,0,0,0,.55-.69h0Z" style="fill:#263238"></path><path d="M244.27,270.87v26.62a6.16,6.16,0,0,1-2.78,4.81l-2.26,1.3,0,0a6.21,6.21,0,0,1-3.46.6L167,342.32a6.17,6.17,0,0,1-2.74,4.61l0,0-2.25,1.3a1,1,0,0,1-.21.1l-.12.06,0,0a6.34,6.34,0,0,1-4.3.19,3.41,3.41,0,0,1-.48-.18l-.08,0-.32-.16-36.07-20.82a6.16,6.16,0,0,1-2.77-4.81V278a6.16,6.16,0,0,1,2.78-4.8l79.54-46a6.14,6.14,0,0,1,5.54,0l2.26,1.3a7.37,7.37,0,0,1,3.2,4.78l2.17,16.34,28.44,16.43A6.13,6.13,0,0,1,244.27,270.87Z" style="fill:#37474f"></path><path d="M207.68,228.53l-2.25-1.31a6.16,6.16,0,0,0-5.55,0l-79.54,46-.29.18a6.34,6.34,0,0,0-2.45,4.16c.2-1.42,1.35-1.93,2.74-1.14-.19-.1,2.26,1.31,2.26,1.31a6.14,6.14,0,0,0,5.54,0l79.54-46C209.21,230.84,209.21,229.41,207.68,228.53Z" style="fill:#455a64"></path><path d="M244.27,270.87v26.62a6.16,6.16,0,0,1-2.78,4.81l-2.26,1.3,0,0a5.88,5.88,0,0,1-3.24.62,5.42,5.42,0,0,1-2.26-.64L208,288.78a6.13,6.13,0,0,1-2.77-4.8V257.35a6.13,6.13,0,0,1,2.77-4.8l5-2.91,28.44,16.43A6.13,6.13,0,0,1,244.27,270.87Z" style="fill:#263238"></path><path d="M213.06,249.65l-5,2.9c-1.53.88-1.53,2.32,0,3.2l25.66,14.82a6.16,6.16,0,0,1,2.77,4.8V302c0,1.76,1.25,2.48,2.77,1.6l2.26-1.3a6.15,6.15,0,0,0,2.77-4.81V270.86a6.13,6.13,0,0,0-2.77-4.8Z" style="fill:#455a64"></path><path d="M236.46,275.37V302c0,1.76,1.25,2.48,2.77,1.6l2.26-1.3a6.15,6.15,0,0,0,2.77-4.81V270.86a5.69,5.69,0,0,0-.81-2.73l-7.8,4.51A5.69,5.69,0,0,1,236.46,275.37Z" style="fill:#37474f"></path><path d="M235.31,304.24a6.7,6.7,0,0,1-1,1.52,12.2,12.2,0,0,1-2.61,1.82L170.32,343a3.07,3.07,0,0,1-2.77,0l-9-5.2-18-10.41a5.21,5.21,0,0,1,0-9.21l10.23-5.91,7.81-4.5,43.3-25a6.16,6.16,0,0,1,5.55,0l25.66,14.82a5.93,5.93,0,0,1,2.77,4.6A4.91,4.91,0,0,1,235.31,304.24Z" style="fill:#263238"></path><path d="M170.33,337,234.43,300c.77-.44,1.39-.08,1.39.8v2.81a3.06,3.06,0,0,1-1.39,2.4l-64.11,37c-.76.44-1.38.09-1.38-.8v-2.8A3.06,3.06,0,0,1,170.33,337Z" style="fill:#37474f"></path><path d="M201.84,269,140.5,304.49a6.12,6.12,0,0,0-2.77,4.8v5.61a6.15,6.15,0,0,0,2.77,4.8l25.67,14.82a6.14,6.14,0,0,0,5.54,0l61.34-35.45a6.12,6.12,0,0,0,2.77-4.8v-5.61a6.12,6.12,0,0,0-2.77-4.8L207.39,269A6.16,6.16,0,0,0,201.84,269Z" style="fill:#37474f"></path><path d="M168.94,323.16v12a5.57,5.57,0,0,1-2.77-.67L140.5,319.7a6.13,6.13,0,0,1-2.77-4.8v-5.61a6.18,6.18,0,0,1,2.49-4.62c-1.24.89-1.15,2.19.28,3l25.67,14.81A5.59,5.59,0,0,0,168.94,323.16Z" style="fill:#263238"></path><path d="M171.71,322.5l61.34-35.44c1.53-.88,1.53-2.32,0-3.2L207.39,269a6.16,6.16,0,0,0-5.55,0L140.5,304.49c-1.53.88-1.53,2.31,0,3.2l25.67,14.81A6.08,6.08,0,0,0,171.71,322.5Z" style="fill:#455a64"></path></g><g id="freepik--Character--inject-4"><path d="M226,316.09s1.11,6,2.22,7.94a30.16,30.16,0,0,0,4.31,6c.41.43,1.33,1.22,1.66,1.57a.7.7,0,0,1,0,1.09c-.76.79-4.11,1.11-6.05-.22s-3.61-3.58-4.78-4.67l-1.54-1.45a1.54,1.54,0,0,1-.44-1.43c0-.15.07-.32.11-.52.36-1.84-1-6.92-1-6.92C222,315.17,223.94,315.81,226,316.09Z" style="fill:#f28f8f"></path><path d="M221.23,326.7a2,2,0,0,0,.14,1,6.12,6.12,0,0,0,2.17,1.48,4.06,4.06,0,0,1,1.81,1.71,8.44,8.44,0,0,0,3.6,3.3,10.61,10.61,0,0,0,6.33.38c2.62-.6,2.76-2.16,2.76-2.16s.08-1.47-.59-1.67S221.23,326.7,221.23,326.7Z" style="fill:#263238"></path><path d="M220.79,324.92a4.21,4.21,0,0,0,.44,1.78c.82,1,2.68,1.32,3.8,2.74s2.49,3.63,6,4.17,6.06-.69,6.65-1.7,0-1.91-2.29-3c-2.41-1.16-5.35-4.42-5.35-4.42a15,15,0,0,1-2-4c-.06-.13-.15-.28-.29-.28s-.24.22-.32.37a1.1,1.1,0,0,1-.64.45,8.67,8.67,0,0,1-.9.31,8.31,8.31,0,0,1-1.87.31.83.83,0,0,0-.58.19.77.77,0,0,0-.09.54c0,.23.08.46.13.68a.81.81,0,0,1,0,.34.44.44,0,0,1-.38.29,1,1,0,0,1-.49-.13,2.07,2.07,0,0,1-1.19-1.35s0-.35-.1-.67a.87.87,0,0,0-.4.52c0,.27,0,.55,0,.82A15.47,15.47,0,0,0,220.79,324.92Z" style="fill:#37474f"></path><path d="M221.23,326.7a2,2,0,0,0,.14,1,6.12,6.12,0,0,0,2.17,1.48,4.06,4.06,0,0,1,1.81,1.71,8.44,8.44,0,0,0,3.6,3.3,10.61,10.61,0,0,0,6.33.38c2.62-.6,2.76-2.16,2.76-2.16s.08-1.47-.59-1.67S221.23,326.7,221.23,326.7Z" style="fill:#263238"></path><path d="M220.79,324.92a4.21,4.21,0,0,0,.44,1.78c.82,1,2.68,1.32,3.8,2.74s2.49,3.63,6,4.17,6.06-.69,6.65-1.7,0-1.91-2.29-3c-2.41-1.16-5.35-4.42-5.35-4.42a15,15,0,0,1-2-4c-.06-.13-.15-.28-.29-.28s-.24.22-.32.37a1.1,1.1,0,0,1-.64.45,8.67,8.67,0,0,1-.9.31,8.31,8.31,0,0,1-1.87.31.83.83,0,0,0-.58.19.77.77,0,0,0-.09.54c0,.23.08.46.13.68a.81.81,0,0,1,0,.34.44.44,0,0,1-.38.29,1,1,0,0,1-.49-.13,2.07,2.07,0,0,1-1.19-1.35s0-.35-.1-.67a.87.87,0,0,0-.4.52c0,.27,0,.55,0,.82A15.47,15.47,0,0,0,220.79,324.92Z" style="fill:#37474f"></path><path d="M222,323.2a4.48,4.48,0,0,0,.56.36,1,1,0,0,0,.49.13.44.44,0,0,0,.38-.29.81.81,0,0,0,0-.34c.49,1.5,2.2,3.52,2.06,3.67S222.61,324,222,323.2Z" style="fill:#263238"></path><path d="M238.17,309s1.26,6.23,2.28,8.18a29.78,29.78,0,0,0,4,6.18c.39.45,1.27,1.29,1.59,1.65a.7.7,0,0,1-.08,1.08c-.79.76-4.15.93-6-.49s-3.45-3.73-4.57-4.87l-1.47-1.52a1.52,1.52,0,0,1-.38-1.45c0-.15.09-.32.13-.52.44-1.81-1.6-6.54-1.6-6.54C233.7,308.44,236.13,308.6,238.17,309Z" style="fill:#f28f8f"></path><path d="M233.4,319.92a1.93,1.93,0,0,0,.13,1,6.26,6.26,0,0,0,2.18,1.48,4.07,4.07,0,0,1,1.8,1.72,8.6,8.6,0,0,0,3.61,3.3,10.69,10.69,0,0,0,6.33.37c2.61-.59,2.76-2.16,2.76-2.16s.07-1.47-.59-1.67S233.4,319.92,233.4,319.92Z" style="fill:#263238"></path><path d="M233,318.14a4.07,4.07,0,0,0,.44,1.78c.82,1.05,2.67,1.32,3.8,2.74s2.48,3.63,6,4.17,6.05-.68,6.65-1.7,0-1.91-2.3-3-5.35-4.43-5.35-4.43a14.84,14.84,0,0,1-2-4c-.05-.13-.14-.28-.28-.28s-.24.22-.32.37a1.13,1.13,0,0,1-.64.45c-.3.12-.6.22-.9.31a8.51,8.51,0,0,1-1.87.32.77.77,0,0,0-.58.18.72.72,0,0,0-.09.54,5.58,5.58,0,0,0,.13.69.65.65,0,0,1,0,.34.43.43,0,0,1-.38.28.91.91,0,0,1-.48-.13,2,2,0,0,1-1.15-1.36s-.06-.35-.14-.66a.87.87,0,0,0-.4.52,7.56,7.56,0,0,0,0,.83A12.49,12.49,0,0,0,233,318.14Z" style="fill:#37474f"></path><path d="M235.74,318.5a10.18,10.18,0,0,1-1.52-2.08h0a2.38,2.38,0,0,0,.55.36.91.91,0,0,0,.48.13.43.43,0,0,0,.38-.28.65.65,0,0,0,0-.34,12.44,12.44,0,0,0,2.15,3.49C238.39,320.44,236.86,319.76,235.74,318.5Z" style="fill:#263238"></path><path d="M191.25,275.16l8.95-2,12-3.07s18.94,10.44,21.55,15c1.51,2.64,4.37,22.54,4.89,25.63-1.05,1-4.71,1.47-6.12,1.36-1.1-2.39-1.72-3.44-3.27-7-1.26-2.88-1.85-4-2.58-6a29.74,29.74,0,0,1-1.38-7.68l-7.87-4.23c4.88,3.87,5.18,4.9,5.7,5.82,1.49,2.65,3.14,22,3.41,24.79-.8,1.26-5,1.92-6.13,1.28-1.71-4.38-2.86-6.46-4.25-10.06-2.2-5.73-1.2-9.2-1.84-10.4,0,0-4.07-2.42-10.39-6.12a43.73,43.73,0,0,1-7.64-5.09C193,284.31,192,279.13,191.25,275.16Z" style="fill:#407BFF"></path><path d="M191.25,275.16l8.95-2,12-3.07s18.94,10.44,21.55,15c1.51,2.64,4.37,22.54,4.89,25.63-1.05,1-4.71,1.47-6.12,1.36-1.1-2.39-1.72-3.44-3.27-7-1.26-2.88-1.85-4-2.58-6a29.74,29.74,0,0,1-1.38-7.68l-7.87-4.23c4.88,3.87,5.18,4.9,5.7,5.82,1.49,2.65,3.14,22,3.41,24.79-.8,1.26-5,1.92-6.13,1.28-1.71-4.38-2.86-6.46-4.25-10.06-2.2-5.73-1.2-9.2-1.84-10.4,0,0-4.07-2.42-10.39-6.12a43.73,43.73,0,0,1-7.64-5.09C193,284.31,192,279.13,191.25,275.16Z" style="opacity:0.4"></path><path d="M217.4,287.17l-7.69-5.77a10.66,10.66,0,0,0,3.07-6.75,12.74,12.74,0,0,1-1.2,6.8l6.12,4.72,7.57,5.23Z" style="opacity:0.15"></path><path d="M221.75,262.78s-5-6.78-8-11c-3.75-5.18-5.39-5.4-8.28-5.11l3,11.88s8.39,9.11,9.94,10.44,3.18,1.72,5.6-.25,8-7,9.49-8.5,3.65-2.9,4.82-4.34c1.63-2,1-6-.74-6.09-1-.08-1.65.93-2.38,1.62-.94.88-1.9,1.88-2.63,2.53a6.79,6.79,0,0,1,.36-1.7,2.28,2.28,0,0,0,.06-1.1c-.06-.25-.38-.8-.72-.71s-.57.79-.7,1a14.51,14.51,0,0,0-1.21,2.27,5.14,5.14,0,0,0-.45,1.46,5,5,0,0,1-.58,2C227.92,259.08,221.75,262.78,221.75,262.78Z" style="fill:#f28f8f"></path><path d="M205.1,246.71c1.81-.32,3.49-.39,5.07.9s3.94,3.95,7.23,9c0,0-.78,3.49-6.15,5.68l-4.81-5.44Z" style="fill:#407BFF"></path><path d="M195.56,247.15l-4.28.93s-.31,10.48-2.18,11.4c-.24,9.8,2.85,20.68,2.85,20.68s5.32,1.42,13-1.26a13.42,13.42,0,0,0,8.38-8.3,26.9,26.9,0,0,1-2.67-4.5c-1.05-3.47-.88-9.68-1.23-12-.81-5.44-3.94-7.35-3.94-7.35H201.1Z" style="fill:#fafafa"></path><path d="M191.24,248.68c-4.39.66-5.11,3.17-5.78,7.26-.58,3.59-1.49,11.42-2.66,16h0c-.61,3.18-1.43,8.26-2.35,10.17a2.18,2.18,0,0,1-1.13,1,17.13,17.13,0,0,0-3.41,2.42c-.83.6-1.47.71-1.41.94a1.23,1.23,0,0,0,1.47.66,8.73,8.73,0,0,0,1.88-.66,10.4,10.4,0,0,1-2.2,2.59c-2,1.73-1.87,3.13,1.62,3.56,2.19.26,4.12-.76,6.39-4.95a48.21,48.21,0,0,0,2.15-4.56c1.54-3.78,2.29-5.9,3.21-8.46,1.15-3.19,1.58-4,1.9-6.3.43-2.84.84-6.57,1.3-8.4C193.47,254.87,192.63,249.68,191.24,248.68Z" style="fill:#f28f8f"></path><path d="M191.28,248.08c-2.19.24-4.09.75-5.5,3.11s-2.74,12.5-2.74,12.5a11.12,11.12,0,0,0,7.88,2.24l1.91-9.07S194.34,250.51,191.28,248.08Z" style="fill:#407BFF"></path><path d="M192.68,230.94a1.55,1.55,0,0,1,2.13-.32,1.21,1.21,0,0,1,.24.35,2.72,2.72,0,0,1,.11.25,6.43,6.43,0,0,1,.14,2.05l.09,1.81.12,2.31.47,0,.08,3.27-.05,2.71-.27,0A2.25,2.25,0,0,1,194.3,242c-.42-.81-.94-1.57-1.33-2.41a20.7,20.7,0,0,1-1-2.66,8.38,8.38,0,0,1-.41-3.61,4.25,4.25,0,0,1,1.1-2.35Z" style="fill:#263238"></path><path d="M209.28,230.24a.25.25,0,0,1,.12,0,.48.48,0,0,1,.11.09,3.37,3.37,0,0,1,.65,1.94,3,3,0,0,1-.36,1.53,2.08,2.08,0,0,1-1.19,1,.9.9,0,0,1-.46,0,1,1,0,0,1-.44-.3,5.15,5.15,0,0,1-.53-.76,2.18,2.18,0,0,1-.4-1.53.53.53,0,0,1,.11-.24.86.86,0,0,1,.2-.13,8.5,8.5,0,0,0,.84-.6c.26-.17.5-.35.74-.54S209,230.32,209.28,230.24Z" style="fill:#263238"></path><path d="M196.06,237.91c-.36.19-.83-.5-1.24-1a1.52,1.52,0,0,0-2.56.31c-.77,1.48.31,3.44,1.31,4s2-.4,2-.4l-.26,6.7a7.4,7.4,0,0,0,5,2.54c2.35.25,2.84-1.15,1.78-2.56l.08-2.1a11.71,11.71,0,0,0,2.28.24c1.52-.08,2.43-.62,3.24-3,.74-2.18,1.12-4.13.91-9.19-.22-5.29-6.87-5.33-10.25-3.38S196.06,237.91,196.06,237.91Z" style="fill:#f28f8f"></path><path d="M196,238.5c-.17,0-.8-1.14-1.21-1.55a1.13,1.13,0,0,1-.19-.74c0-.77.14-1.51.05-2.26a9,9,0,0,0-.72-2.08,4,4,0,0,1-.26-2.26,3.4,3.4,0,0,1,1.46-2,6.14,6.14,0,0,1,2.35-.88,39.52,39.52,0,0,1,5.44-.32,9.16,9.16,0,0,0,5.15-1.53c.11-.09.26-.19.38-.12a.26.26,0,0,1,.1.11c.49.73.06,1.7.11,2.57a2.55,2.55,0,0,0,1.8-.39,1.74,1.74,0,0,1,.34,1.68,5.45,5.45,0,0,1-1.27,2.7,2.44,2.44,0,0,1-2.64.31.24.24,0,0,0-.16,0c-.09,0-.15.08-.21.15a3.62,3.62,0,0,1-3.14,1c-1.13-.13-2.21-.54-3.33-.75a3,3,0,0,0-1.31,0c-.52.15-.69.48-1,.91a3.38,3.38,0,0,0-.36.64,3.54,3.54,0,0,0-.18.73C197.16,234.89,197,238.51,196,238.5Z" style="fill:#263238"></path><path d="M202.22,245.47A24.18,24.18,0,0,1,198,244.1a3.65,3.65,0,0,1-1.45-1.56,5,5,0,0,0,.79,1.8c.76,1.06,4.81,2,4.81,2Z" style="fill:#b16668"></path><path d="M201.83,237.21a.64.64,0,0,1-.65.62.65.65,0,0,1-.61-.68.64.64,0,0,1,.66-.62A.65.65,0,0,1,201.83,237.21Z" style="fill:#263238"></path><path d="M201,234.71l-1.37.69a.81.81,0,0,1,.36-1.06A.74.74,0,0,1,201,234.71Z" style="fill:#263238"></path><path d="M201.37,241.28l2,.82a1.08,1.08,0,0,1-1.41.65A1.15,1.15,0,0,1,201.37,241.28Z" style="fill:#b16668"></path><path d="M207.72,235.33l-1.19-1a.74.74,0,0,1,1.07-.12A.81.81,0,0,1,207.72,235.33Z" style="fill:#263238"></path><path d="M207.21,237.37a.63.63,0,1,1-.6-.68A.65.65,0,0,1,207.21,237.37Z" style="fill:#263238"></path><polygon points="203.8 236.86 203.86 240.64 206.17 239.95 203.8 236.86" style="fill:#b16668"></polygon></g><g id="freepik--character--inject-4"><path d="M161.19,270.08a6.47,6.47,0,0,1,5.79,2.3c1.75,1.82,9.77,9.74,9.77,9.74l-2.83,6L162,278.89Z" style="fill:#f28f8f"></path><path d="M191.54,264.78a2.12,2.12,0,0,1,.25.81,2.39,2.39,0,0,1,0,.8.89.89,0,0,1,.51.17,1.92,1.92,0,0,1,.53.67,1.77,1.77,0,0,1,0,1.28,1.72,1.72,0,0,1,.84,1.11,2,2,0,0,1-.56,1.76,1.69,1.69,0,0,1,.47,1.33,1.65,1.65,0,0,1-.71,1.21.77.77,0,0,0-.31.28c-.11.22,0,.47.1.71a1.41,1.41,0,0,1-.41,1.18,6.58,6.58,0,0,0-.83,1,1,1,0,0,0,.11,1.2,2.32,2.32,0,0,1,.16-4.06,3.43,3.43,0,0,1-.52-1.25,1.17,1.17,0,0,1,.53-1.18,1.87,1.87,0,0,1-1-1.08,2.18,2.18,0,0,1-.09-1.38,1.28,1.28,0,0,1-.75-.6,1.26,1.26,0,0,1-.12-.95,1.9,1.9,0,0,1-.58-2.59c.1-.14.17-.31.27-.46a2.71,2.71,0,0,1,.61-.56.93.93,0,0,1,.49-.23.85.85,0,0,1,.53.25A1.94,1.94,0,0,1,191.54,264.78Z"></path><path d="M195.47,272.12c1.45,2.14,5.19,8.44,5.19,8.44l3.47-5.1,3.34-.36s-3,9.08-5.28,11.24a2.22,2.22,0,0,1-3.07.05,23.12,23.12,0,0,1-2.59-2.79,27.92,27.92,0,0,0-3.79-3.8l-2.92-10.14C191.27,269.66,193.58,269.35,195.47,272.12Z" style="fill:#ffa8a7"></path><path d="M200.66,280.56a6.35,6.35,0,0,0-1.54,2.29,3.94,3.94,0,0,1,1.24-2.8Z" style="fill:#f28f8f"></path><path d="M207.8,268.77h0l-.35-.29h0a.42.42,0,0,0-.36,0l-3.78,1.07a1.39,1.39,0,0,0-.84.8l-2.65,7.89a.37.37,0,0,0,.06.41h0l.37.3h0a.41.41,0,0,0,.36,0l3.78-1.07a1.41,1.41,0,0,0,.84-.8l2.65-7.89C207.94,269,207.91,268.85,207.8,268.77Z" style="fill:#407BFF"></path><path d="M207.8,268.77h0l-.35-.29h0a.42.42,0,0,0-.36,0l-3.78,1.07a1.39,1.39,0,0,0-.84.8l-2.65,7.89a.37.37,0,0,0,.06.41h0l.37.3h0a.41.41,0,0,0,.36,0l3.78-1.07a1.41,1.41,0,0,0,.84-.8l2.65-7.89C207.94,269,207.91,268.85,207.8,268.77Z" style="opacity:0.30000000000000004"></path><path d="M200.18,278.5l2.65-7.89a1.41,1.41,0,0,1,.84-.8l3.78-1.07c.35-.1.54.1.43.45l-2.65,7.89a1.41,1.41,0,0,1-.84.8L200.61,279C200.26,279.05,200.07,278.85,200.18,278.5Z" style="fill:#407BFF"></path><path d="M200.18,278.5l2.65-7.89a1.41,1.41,0,0,1,.84-.8l3.78-1.07c.35-.1.54.1.43.45l-2.65,7.89a1.41,1.41,0,0,1-.84.8L200.61,279C200.26,279.05,200.07,278.85,200.18,278.5Z" style="opacity:0.5"></path><path d="M203.26,270a1.47,1.47,0,0,0-.43.58l-2.65,7.89c-.05.18,0,.32,0,.4l-.35-.29h0c-.09-.07-.12-.21-.06-.4l2.65-7.89a1.36,1.36,0,0,1,.4-.55Z" style="fill:#407BFF"></path><path d="M203.26,270a1.47,1.47,0,0,0-.43.58l-2.65,7.89c-.05.18,0,.32,0,.4l-.35-.29h0c-.09-.07-.12-.21-.06-.4l2.65-7.89a1.36,1.36,0,0,1,.4-.55Z" style="opacity:0.4"></path><path d="M206.78,276.4c1.4-2,1.11-4.28.31-4.86l-.38,1.11a18,18,0,0,1-3.55.84c-1.18,0-2.17-.14-2.47.12a2,2,0,0,0,1.43,3.15C203.84,277.21,206.78,276.4,206.78,276.4Z" style="fill:#ffa8a7"></path><path d="M193.76,288.88s7.78,4.49,10.92,6.2,4.56,2.71,4.14,8.11-1.66,13.22-1.66,13.22c-1.46,1.59-3.37,3.85-4,1l-.12-.38a3.8,3.8,0,0,0,.2-.9v-.39c.06-2.69-2.45-10.21-1.32-12.58l-9.59-4.35Z" style="fill:#ffa8a7"></path><path d="M201.65,303.21,191.17,299l-6.08-6.6,8.67-3.66,12.1,6.86c2.32,1.55,3.23,2,3.17,5.34a73.24,73.24,0,0,1-.79,8.13s-3.3,2.08-6.1.65c0,0-.43-1.86-.61-3.48A15.31,15.31,0,0,1,201.65,303.21Z" style="fill:#407BFF"></path><path d="M201.65,303.21,191.17,299l-6.08-6.6,8.67-3.66,12.1,6.86c2.32,1.55,3.23,2,3.17,5.34a73.24,73.24,0,0,1-.79,8.13s-3.3,2.08-6.1.65c0,0-.43-1.86-.61-3.48A15.31,15.31,0,0,1,201.65,303.21Z" style="opacity:0.25"></path><path d="M202.39,302.86c-.18-1.46-.75-2.34-2.5-3.46s-6.84-4.41-6.84-4.41,1-2.43.42-3.71l-4.08,5.23,2.67,2.81,9.59,3.89a15.31,15.31,0,0,0-.12,3c.09.83.24,1.71.38,2.38A54.23,54.23,0,0,0,202.39,302.86Z" style="opacity:0.25"></path><path d="M214,322.65a1.49,1.49,0,0,1-.08,1c-.23.32-1.06,1.18-3.38,1.26a5.29,5.29,0,0,1-4.1-1.45c-.5-.56-1-1.11-1.44-1.56a3.92,3.92,0,0,0-1.58-.72c-.45-.11-.58-.26-.59-.89S214,322.65,214,322.65Z" style="fill:#37474f"></path><path d="M203.21,315.77c0,.12,0,.25,0,.39s-.13.87.47,1,.63-.31,1.13-.77c1.08-1,2.48-1,2.88-.28a15.52,15.52,0,0,0,2.82,3.27,14.79,14.79,0,0,0,1.55,1.09c.59.35,2,1,1.93,1.85s-.86,1.43-2,1.69a6.57,6.57,0,0,1-4.42-.53,13.16,13.16,0,0,1-2.47-2.17c-.75-.63-1.88-.69-2.26-1a2.83,2.83,0,0,1-.39-2c.08-.8.4-1.48.4-1.87S202.93,315.82,203.21,315.77Z" style="fill:#407BFF"></path><path d="M203.21,315.77c0,.12,0,.25,0,.39s-.13.87.47,1,.63-.31,1.13-.77c1.08-1,2.48-1,2.88-.28a15.52,15.52,0,0,0,2.82,3.27,14.79,14.79,0,0,0,1.55,1.09c.59.35,2,1,1.93,1.85s-.86,1.43-2,1.69a6.57,6.57,0,0,1-4.42-.53,13.16,13.16,0,0,1-2.47-2.17c-.75-.63-1.88-.69-2.26-1a2.83,2.83,0,0,1-.39-2c.08-.8.4-1.48.4-1.87S202.93,315.82,203.21,315.77Z" style="opacity:0.4"></path><path d="M210.35,320.57a3.12,3.12,0,0,1,1.49-.21.83.83,0,0,1,.41.13c.58.36,1.87,1,1.8,1.84s-.82,1.48-1.92,1.75a6.21,6.21,0,0,1-4.15-.39A3.57,3.57,0,0,1,210.35,320.57Z" style="fill:#f0f0f0"></path><path d="M187.16,293.52s7.17,3.79,10.31,5.5,4.56,2.71,4.14,8.11S200,320.35,200,320.35c-1.46,1.58-3.37,3.84-4,1l-.12-.38a3.8,3.8,0,0,0,.2-.9v-.4c.06-2.68-2.45-10.2-1.32-12.57l-14.6-7.61Z" style="fill:#ffa8a7"></path><path d="M194.44,307.15s-8.84-4.51-13.06-6.54c-4.86-2.33-5.24-5.52-4.68-10.07l17.06-1.66c-.31,1.52,0,3.72-2,6.38l6.87,4.24c2.32,1.55,3.23,2,3.17,5.34A73.54,73.54,0,0,1,201,313s-3.3,2.08-6.1.65c0,0-.43-1.86-.61-3.48A15.31,15.31,0,0,1,194.44,307.15Z" style="fill:#407BFF"></path><path d="M194.44,307.15s-8.84-4.51-13.06-6.54c-4.86-2.33-5.24-5.38-4.68-10.07l17.06-1.66c-.31,1.52,0,3.72-2,6.38l6.87,4.24c2.32,1.55,3.23,2,3.17,5.34A73.54,73.54,0,0,1,201,313s-3.3,2.08-6.1.65c0,0-.43-1.86-.61-3.48A15.31,15.31,0,0,1,194.44,307.15Z" style="opacity:0.25"></path><path d="M206.78,326.58a1.48,1.48,0,0,1-.08.95c-.23.32-1.06,1.19-3.38,1.27a5.3,5.3,0,0,1-4.09-1.45c-.51-.56-1-1.12-1.45-1.56a3.67,3.67,0,0,0-1.58-.72c-.45-.11-.58-.26-.59-.89S206.78,326.58,206.78,326.58Z" style="fill:#37474f"></path><path d="M196,319.7c0,.13,0,.26,0,.4s-.13.87.47,1,.63-.32,1.13-.77c1.08-1,2.48-1,2.88-.28a15.44,15.44,0,0,0,2.82,3.26,13.58,13.58,0,0,0,1.55,1.1c.59.35,2,1,1.93,1.85s-.86,1.42-2,1.69a6.58,6.58,0,0,1-4.42-.54,13.52,13.52,0,0,1-2.47-2.16c-.75-.63-1.88-.69-2.26-1a2.87,2.87,0,0,1-.39-2c.08-.79.4-1.47.4-1.86S195.72,319.75,196,319.7Z" style="fill:#407BFF"></path><path d="M196,319.7c0,.13,0,.26,0,.4s-.13.87.47,1,.63-.32,1.13-.77c1.08-1,2.48-1,2.88-.28a15.44,15.44,0,0,0,2.82,3.26,13.58,13.58,0,0,0,1.55,1.1c.59.35,2,1,1.93,1.85s-.86,1.42-2,1.69a6.58,6.58,0,0,1-4.42-.54,13.52,13.52,0,0,1-2.47-2.16c-.75-.63-1.88-.69-2.26-1a2.87,2.87,0,0,1-.39-2c.08-.79.4-1.47.4-1.86S195.72,319.75,196,319.7Z" style="opacity:0.4"></path><path d="M203.14,324.51a3,3,0,0,1,1.49-.21.83.83,0,0,1,.41.13c.59.35,1.87.95,1.8,1.84s-.82,1.48-1.92,1.74a6.14,6.14,0,0,1-4.15-.38A3.56,3.56,0,0,1,203.14,324.51Z" style="fill:#f0f0f0"></path><path d="M179.82,270.52c-1.48.23-2.19,1.39-2.54,2.84a9.4,9.4,0,0,0,.09,3.13c.18,1.54,1,8.28,1,8.28l-2.08,7.39c9.58,2.43,16.7-1.33,17.72-3.37a17.25,17.25,0,0,0-1.3-1.89,51.29,51.29,0,0,0,.46-11.38c-.46-3.53-1.45-5.44-3-5.82a7.25,7.25,0,0,0-1.36-.06l-5.77.21Z" style="fill:#407BFF"></path><path d="M182.67,267.92c-1-1.54-3.82-3.15-4.49-5.95-1-4.22,1.52-6.34,2.75-6.51a5.58,5.58,0,0,1,3.16-3.14,7.73,7.73,0,0,1,7,.55,6.48,6.48,0,0,1,2.6,2.72,6.31,6.31,0,0,1,.36,4.19,4.25,4.25,0,0,1-1.81,2.22,9.55,9.55,0,0,1-2.71,1.08c-.58.16-1.17.29-1.76.45a4.47,4.47,0,0,0-.9.27,3.73,3.73,0,0,0-.52.46l-3,2.62C183.16,267.08,182.9,267.72,182.67,267.92Z"></path><path d="M182.3,262.14a.16.16,0,0,1-.08.06c-.42.25-.73-.69-.94-.91a1.44,1.44,0,0,0-.69-.43,1.13,1.13,0,0,0-1.32.48,2.11,2.11,0,0,0,1.09,2.91c1.38.48,1.75-.46,1.75-.46l.12,6.36a5.2,5.2,0,0,0,3.86,3.05c2.86.44,2.77-1.89,1.85-3.07l.13-1.7a7.06,7.06,0,0,0,2.12-.17,3.24,3.24,0,0,0,2.24-2.14,7.51,7.51,0,0,0,.44-1.2,10.87,10.87,0,0,0,.33-3.11c0-.69-.07-1.37-.14-2.05a1.64,1.64,0,0,0-.26-1,1.48,1.48,0,0,0-.77-.45,3.88,3.88,0,0,0-1.18-.09,19,19,0,0,1-3.35.24,5.68,5.68,0,0,1-2.63-1.17,5.64,5.64,0,0,1-.59,2.15,2.43,2.43,0,0,1-1.73,1.19,2.57,2.57,0,0,1-.07,1.17A.72.72,0,0,1,182.3,262.14Z" style="fill:#ffa8a7"></path><path d="M187.32,261.73a.6.6,0,1,1-1.19,0,.6.6,0,1,1,1.19,0Z" style="fill:#263238"></path><path d="M186.58,259.91l-1.29.68a.75.75,0,0,1,.32-1A.71.71,0,0,1,186.58,259.91Z" style="fill:#263238"></path><path d="M187,264.84l2.24.89a1.2,1.2,0,0,1-1.55.72A1.26,1.26,0,0,1,187,264.84Z" style="fill:#b16668"></path><path d="M186.92,265.57a1,1,0,0,1,.52-.1,1,1,0,0,1,.89,1,1.11,1.11,0,0,1-.67-.05A1.26,1.26,0,0,1,186.92,265.57Z" style="fill:#f28f8f"></path><path d="M192.7,260l-1.36-.52a.7.7,0,0,1,.92-.44A.78.78,0,0,1,192.7,260Z" style="fill:#263238"></path><path d="M192.31,261.77a.6.6,0,0,1-.61.61.61.61,0,0,1-.58-.64.6.6,0,1,1,1.19,0Z" style="fill:#263238"></path><polygon points="189.13 261.11 189.25 264.31 190.92 263.77 189.13 261.11" style="fill:#f28f8f"></polygon><path d="M188.07,268.43a12.36,12.36,0,0,1-4.12-1.2,3.68,3.68,0,0,1-1.26-1.29,3.71,3.71,0,0,0,.7,1.51c1.25,1.53,4.63,1.65,4.63,1.65Z" style="fill:#f28f8f"></path><path d="M184.63,297.77c.6.36,1.21,1.27,2.19,1.7.58.25,1.15.28,1.75.49a6,6,0,0,1,1.21.45c.3.22.78.79,1.09,1a2.55,2.55,0,0,0,1.53.57,2.19,2.19,0,0,0,1.49-.24,1.34,1.34,0,0,0,.3-1.8,8.87,8.87,0,0,0-1.69-2.61,5.13,5.13,0,0,0-1.88-1.27,15,15,0,0,0-2-.78,5.2,5.2,0,0,1-1.1-.34c-2.21-1.14-8.49-6.24-8.49-6.24l.84-9.11s1-6.73-.57-8.93c0,0-3.16.42-4.26,2.37-.86,1.52-1.24,8-1.48,14.76-.09,2.71,0,3.8,1.49,4.85C178.16,294.77,183.6,297.16,184.63,297.77Z" style="fill:#ffa8a7"></path><path d="M179.06,266.14a2.21,2.21,0,0,0,0,.85,2.27,2.27,0,0,0,.25.76.89.89,0,0,0-.43.32,1.8,1.8,0,0,0-.29.8,1.77,1.77,0,0,0,.35,1.24,1.68,1.68,0,0,0-.44,1.31,1.94,1.94,0,0,0,1.09,1.5,1.66,1.66,0,0,0,1,2.33,1,1,0,0,1,.38.16c.17.18.1.47.13.71a1.44,1.44,0,0,0,.76,1,5.62,5.62,0,0,1,1.1.68,1,1,0,0,1,.27,1.17,2.32,2.32,0,0,0-1.42-3.8,3.43,3.43,0,0,0,.09-1.35,1.17,1.17,0,0,0-.87-.95,1.89,1.89,0,0,0,.62-1.35,2.18,2.18,0,0,0-.35-1.34,1.28,1.28,0,0,0,.52-.8,1.25,1.25,0,0,0-.18-.94,2,2,0,0,0-.22-2.75c-.15-.11-.29-.3-.43-.41a2.65,2.65,0,0,0-.63-.44.79.79,0,0,0-.52,0c-.19,0-.49.48-.59.66A2.1,2.1,0,0,0,179.06,266.14Z"></path></g><g id="freepik--character--inject-4"><path d="M180.64,329.29c-.38.39-.81.85-.76,1.34a5.05,5.05,0,0,0,1.34,2.81,9.62,9.62,0,0,1,1.91,4.71c.19,1.45.32,5.16,2.16,6.61s6.31,2.19,6.31-.51-5.33-13.09-5.33-13.09Z" style="fill:#263238"></path><path d="M183.11,331a38.74,38.74,0,0,1,1.8,5.81c.46,2.16,1.1,3.69,2.21,4.27s2.75.48,2.13-1-3-8.95-3-8.95Z" style="fill:#f28f8f"></path><path d="M168.84,294.13s8.78,4,13,6.31,8.33,4.54,9.18,6.38.66,6.61.2,11.08-1.45,12.52-1.45,12.52l-12.51-18.74-12.56-8.3Z" style="fill:#407BFF"></path><path d="M185.06,313.84c-1.23-2.87-3.93-4.78-6.45-6.34-2-1.24-7-4.15-9-5.29a9,9,0,0,0,.65-3.08s-.61,1.41-1.34,2.69h0l-.52.86,12.87,9.6,8.81,15.79S186.3,316.71,185.06,313.84Z" style="opacity:0.1"></path><path d="M191,344.16c-.32.21-.27,1-.24,1.59s-.39,1.34.45,2.24,2.27,1,3.42,2.2,2.92,3.48,6.09,3.64,5.34-1.22,5.77-2.22-.23-1.78-2.36-2.59-2.92-1.12-2.92-1.12Z" style="fill:#263238"></path><path d="M193.65,337.13a47.76,47.76,0,0,0,3,5.8,21.8,21.8,0,0,0,4.74,4.7c.4.31,1.28.85,1.61,1.1a.61.61,0,0,1,.13.92c-.53.76-3.3,1.49-5.12.64s-3.81-2.77-4.95-3.52l-1.49-1a1.3,1.3,0,0,1-.56-1.14c0-.13,0-.28,0-.46,0-1-1.93-4.41-1.93-4.41Z" style="fill:#ffa8a7"></path><path d="M148.43,299.13a19.65,19.65,0,0,0,3.35,8.6c2,3.17,6.15,5.49,11.54,7.3,4.46,1.5,11,3.64,12.32,3.92s1.58,1,1.88,3.29,1.85,5.86,5.34,10a111.38,111.38,0,0,1,7.08,9.59s3.51.06,4.91-2.37c0,0-10-24-11.64-26.72s-14.77-10.05-14.77-10.05.22-4.95.4-8.55Z" style="fill:#407BFF"></path><path d="M147.74,271.81a13.31,13.31,0,0,1,2.3,9.08c-.43,3.82-1.7,4.42-3.63,5.5-.33,7.82,3,17,3,17s5.66,1.64,13.7-1.46c7.32-2.83,7.88-7,7.88-7l-3.63-4.19-.85-5.42s2.68-4.11,1.3-7.53a15.94,15.94,0,0,0-6.66-7.75H159l-6.15.5Z" style="fill:#fafafa"></path><path d="M152.81,268.3c-1.11-2.2-3.14-4-4.33-6.12A10.24,10.24,0,0,1,147.4,256a7.79,7.79,0,0,1,1.31-3.38,4.53,4.53,0,0,1,2.47-1.62,7.62,7.62,0,0,1,4.12-3.43,7.46,7.46,0,0,1,4.1-.3c1.11.23,2.16.65,3.25,1a11.2,11.2,0,0,0,4.43.32,2.21,2.21,0,0,1,1.35.1,1.66,1.66,0,0,1,.58,1.63,4.71,4.71,0,0,1-1.35,2.86,1.23,1.23,0,0,1,.72,1.16,2.45,2.45,0,0,1-.48,1.34,6,6,0,0,1-4.12,2.46l-3,2.7-4.26,3.87-2,1.85-.87.79C153.56,267.38,152.86,268.39,152.81,268.3Z" style="fill:#407BFF"></path><path d="M152.81,268.3c-1.11-2.2-3.14-4-4.33-6.12A10.24,10.24,0,0,1,147.4,256a7.79,7.79,0,0,1,1.31-3.38,4.53,4.53,0,0,1,2.47-1.62,7.62,7.62,0,0,1,4.12-3.43,7.46,7.46,0,0,1,4.1-.3c1.11.23,2.16.65,3.25,1a11.2,11.2,0,0,0,4.43.32,2.21,2.21,0,0,1,1.35.1,1.66,1.66,0,0,1,.58,1.63,4.71,4.71,0,0,1-1.35,2.86,1.23,1.23,0,0,1,.72,1.16,2.45,2.45,0,0,1-.48,1.34,6,6,0,0,1-4.12,2.46l-3,2.7-4.26,3.87-2,1.85-.87.79C153.56,267.38,152.86,268.39,152.81,268.3Z" style="opacity:0.4"></path><path d="M164.6,253c.29.34,1.62,1.81,1.28,8-.29,5.28-1.48,6.28-2.36,6.63a9.61,9.61,0,0,1-4.44.08v2.3c.6.44,2.63,1.93,2.25,3-.47,1.37-3.68,1.54-5.92.54-2.59-1.15-2.6-2.71-2.6-2.71l0-7a1.68,1.68,0,0,1-1.34,0c-.5-.18-.83-.5-1.28-1.31a3.63,3.63,0,0,1-.21-2.85,2.33,2.33,0,0,1,1.53-1.34,1.65,1.65,0,0,1,1.78.77c.26.41.18,1,.68,1.26a1,1,0,0,0,1-.27A5.24,5.24,0,0,0,156,259a5.06,5.06,0,0,1,1.29-1.32,9.24,9.24,0,0,1,3-1.24A6.67,6.67,0,0,0,164.6,253Z" style="fill:#ffa8a7"></path><path d="M159.34,263.69a1.3,1.3,0,1,0,2.5.71Z" style="fill:#b16668"></path><path d="M160.93,265.28a1.24,1.24,0,0,0-1.22-1,1.17,1.17,0,0,0-.37.08,1.28,1.28,0,0,0,.89,1A1.38,1.38,0,0,0,160.93,265.28Z" style="fill:#f28f8f"></path><path d="M160.26,259.92a.66.66,0,0,1-.69.64.67.67,0,0,1-.63-.7.66.66,0,1,1,1.32.06Z" style="fill:#263238"></path><path d="M165.16,259.91a.67.67,0,1,1-.64-.7A.68.68,0,0,1,165.16,259.91Z" style="fill:#263238"></path><path d="M159.08,267.79c-2.57-.74-4.27-1.72-5.1-3.55a3.06,3.06,0,0,0,.86,2.21,14,14,0,0,0,4.24,2.22Z" style="fill:#f28f8f"></path><path d="M165.59,258.35l-1.57-.49a.82.82,0,0,1,1-.54A.85.85,0,0,1,165.59,258.35Z" style="fill:#263238"></path><path d="M159.71,258l-1.44.78a.8.8,0,0,1,.34-1.1A.81.81,0,0,1,159.71,258Z" style="fill:#263238"></path><polygon points="161.75 259.22 161.87 263.23 163.94 262.83 161.75 259.22" style="fill:#f28f8f"></polygon></g><path d="M159.18,346.65V320a6.14,6.14,0,0,0-2.78-4.8L128,298.8l-2.18-16.35a7.37,7.37,0,0,0-3.19-4.77l-2.26-1.3c-1.53-.89-2.77-.16-2.77,1.6v44.64a6.15,6.15,0,0,0,2.77,4.81l36.06,20.82C157.93,349.13,159.18,348.41,159.18,346.65Z" style="fill:#263238"></path><path d="M167,315.51v26.63a1,1,0,0,1,0,.18,6.17,6.17,0,0,1-2.74,4.61l0,0-2.25,1.3a1,1,0,0,1-.21.1l-.12.06,0,0-.22.08a6.4,6.4,0,0,1-4.08.11,3.41,3.41,0,0,1-.48-.18c1.33.55,2.36-.19,2.37-1.79h0V320a6.14,6.14,0,0,0-2.77-4.8l-5-2.91L128,298.8l5-2.91a6.21,6.21,0,0,1,5.54,0l20.64,11.92,5,2.9A6.14,6.14,0,0,1,167,315.51Z" style="fill:#455a64"></path><path d="M159.18,320v26.63h0c0,1.6-1,2.34-2.37,1.79a3.41,3.41,0,0,0,.48.18,6.4,6.4,0,0,0,4.08-.11l.22-.08,0,0,.12-.06a1,1,0,0,0,.21-.1l2.25-1.3,0,0a6.17,6.17,0,0,0,2.74-4.61,1,1,0,0,0,0-.18V315.51a5.6,5.6,0,0,0-.82-2.73l-7.8,4.51A5.6,5.6,0,0,1,159.18,320Z" style="fill:#37474f"></path><path id="freepik--Arm--inject-4" d="M167.3,310.72c-1.8-2.86-3.15-3.43-4.66-3.94-2.08-.71-3.31-.7-4.76-1.47s-10.15-8.13-10.15-8.13,1.88-9.37,2.57-13.94c1.38-9.11-2.56-11.43-2.56-11.43a5.62,5.62,0,0,0-4,3.08c-1.36,3-1.93,7.16-2.39,11.27-.31,2.68-.72,6.66-1.05,10.21-.17,1.89-.43,3.43.75,4.59,4.05,3.47,13.35,7.76,14.43,8.72,1.6,1.4,2.06,2.11,4.3,2.2,1.86.08,2.48,1.48,4.29,2.13S168.82,313.14,167.3,310.72Z" style="fill:#ffa8a7"></path></g></g><g id="freepik--plant-with-pot--inject-4"><path id="freepik--shadow--inject-4" d="M273.73,273.76c-4.05,2.34-4.05,6.13,0,8.47a16.27,16.27,0,0,0,14.67,0c4.05-2.34,4.05-6.13,0-8.47A16.21,16.21,0,0,0,273.73,273.76Z" style="opacity:0.15"></path><g id="freepik--pot--inject-4"><path d="M288.51,278.11c4-4.07,6.33-20.62,2.44-23.85H271.17c-3.89,3.23-1.55,19.77,2.44,23.84l.11.12.13.13.36.32.1.07a3.4,3.4,0,0,0,.3.23,5.69,5.69,0,0,0,.52.33,13.13,13.13,0,0,0,11.87,0h0a5.69,5.69,0,0,0,.52-.33l.28-.21.12-.09.34-.31.16-.16Z" style="fill:#37474f"></path><path d="M272.89,253c-4.51,2.61-4.51,6.83,0,9.44s11.83,2.6,16.35,0,4.51-6.83,0-9.44S277.4,250.35,272.89,253Z" style="fill:#455a64"></path><path d="M275.06,254.21c-3.31,1.92-3.31,5,0,6.93a13.22,13.22,0,0,0,12,0c3.32-1.91,3.32-5,0-6.93A13.28,13.28,0,0,0,275.06,254.21Z" style="fill:#263238"></path><path d="M287.06,257.5a13.28,13.28,0,0,0-12,0,5.56,5.56,0,0,0-2,1.82,5.47,5.47,0,0,0,2,1.82,13.22,13.22,0,0,0,12,0,5.39,5.39,0,0,0,2-1.82A5.56,5.56,0,0,0,287.06,257.5Z" style="fill:#fafafa"></path><g id="freepik--plants--inject-4"><path d="M281.32,258.91a13.34,13.34,0,0,1-6.84-.77c-1.5-.57-6.14-3.35-3-5a6,6,0,0,0,.8-.41.72.72,0,0,0,.29-.79,1,1,0,0,0-.75-.42,12.54,12.54,0,0,0-2-.16,3.45,3.45,0,0,1-1.63-.2c-.88-.46-1.08-1.61-1.17-2.6a2.84,2.84,0,0,1,.37-2.15,2.88,2.88,0,0,1,1.66-.74l2.15-.43c2.11-.42-3.08-2.45-3.07-2.31a14.41,14.41,0,0,1,1.44-6.53c.28-.68.43-1.75,1.23-2a4.14,4.14,0,0,1,2.1.33,18.59,18.59,0,0,1,4.17,1.88c1.44.8,3.18,1.3,3.53,3.13a7.87,7.87,0,0,1-.24,3.12c.42.1.79-.29,1-.67s.39-.82.8-1a1.47,1.47,0,0,1,1.09.18c1,.45,2.15,1,2.47,2.08a3.57,3.57,0,0,1-.19,2.11,19.16,19.16,0,0,1-1.3,3.1,5,5,0,0,0,2.67-1.4,11.29,11.29,0,0,1,.89,3.95C287.68,253.4,285,257.66,281.32,258.91Z" style="fill:#407BFF"></path><path d="M281.32,258.91a13.34,13.34,0,0,1-6.84-.77c-1.5-.57-6.14-3.35-3-5a6,6,0,0,0,.8-.41.72.72,0,0,0,.29-.79,1,1,0,0,0-.75-.42,12.54,12.54,0,0,0-2-.16,3.45,3.45,0,0,1-1.63-.2c-.88-.46-1.08-1.61-1.17-2.6a2.84,2.84,0,0,1,.37-2.15,2.88,2.88,0,0,1,1.66-.74l2.15-.43c2.11-.42-3.08-2.45-3.07-2.31a14.41,14.41,0,0,1,1.44-6.53c.28-.68.43-1.75,1.23-2a4.14,4.14,0,0,1,2.1.33,18.59,18.59,0,0,1,4.17,1.88c1.44.8,3.18,1.3,3.53,3.13a7.87,7.87,0,0,1-.24,3.12c.42.1.79-.29,1-.67s.39-.82.8-1a1.47,1.47,0,0,1,1.09.18c1,.45,2.15,1,2.47,2.08a3.57,3.57,0,0,1-.19,2.11,19.16,19.16,0,0,1-1.3,3.1,5,5,0,0,0,2.67-1.4,11.29,11.29,0,0,1,.89,3.95C287.68,253.4,285,257.66,281.32,258.91Z" style="opacity:0.30000000000000004"></path><path d="M281.21,259.11a.22.22,0,0,1-.11-.21c.51-7.41-6.05-20.08-9.37-22.92a.23.23,0,0,1,0-.32.22.22,0,0,1,.31,0c3.37,2.9,10,15.77,9.52,23.3a.22.22,0,0,1-.23.21Z" style="fill:#fff"></path><path d="M280.64,260.49a6.54,6.54,0,0,0,10.2-1.6,1.31,1.31,0,0,0,.22-.87,1.4,1.4,0,0,0-.53-.74,9.07,9.07,0,0,0-4.23-2,16.34,16.34,0,0,0,2.7-.13,16.29,16.29,0,0,1,3.62.36s2-.74,1.62-4.07c0,0-1.88-1.37-6.2-.83a13.85,13.85,0,0,1,6-2c.3,0-.1-4.34-.46-6.28s-1.09-1.64-2.64-1.47-6.44,1.78-7,2.9,0,3.93,0,3.93a5.63,5.63,0,0,1-1.74-2.59,5.43,5.43,0,0,0-3,1.23c-1.37,1.16-1,1.89-.53,3.05a13.32,13.32,0,0,0,1.8,3.24,4.42,4.42,0,0,0-.68-.5c-.38-.3-.8-.53-1.16-.85a7.3,7.3,0,0,1-1.66-2.24,12.87,12.87,0,0,0-1.74,4.32,6.56,6.56,0,0,0,.74,4.52,5.06,5.06,0,0,0,4.58,2.45Z" style="fill:#407BFF"></path><path d="M280.5,260.91a.2.2,0,0,0,.12-.17c.52-6.46,7.83-16.55,11.06-18.58a.21.21,0,0,0,.07-.27.2.2,0,0,0-.27-.06c-3.29,2.06-10.72,12.32-11.25,18.88a.19.19,0,0,0,.18.21Z" style="fill:#fff"></path></g></g></g><g id="freepik--Painting--inject-4"><g id="freepik--painting--inject-4"><polygon points="191.97 215 191.97 174.23 190.46 173.36 123.77 211.86 123.77 252.63 125.28 253.5 191.97 215" style="fill:#e0e0e0"></polygon><polygon points="125.28 253.5 191.97 215 191.97 174.23 125.28 212.74 125.28 253.5" style="fill:#f5f5f5"></polygon><polygon points="129.2 246.71 187.97 212.69 187.97 208.25 175.35 199.6 164.85 213.43 167.41 217.27 149.19 205.16 129.2 233.12 129.2 246.71" style="fill:#407BFF"></polygon><path d="M164.51,196.53c1.57-.9,2.84-.17,2.84,1.64a6.28,6.28,0,0,1-2.84,4.92c-1.57.9-2.84.17-2.84-1.64A6.28,6.28,0,0,1,164.51,196.53Z" style="fill:#407BFF"></path><polygon points="129.2 246.71 187.97 212.69 187.97 208.25 175.35 199.6 164.85 213.43 167.41 217.27 149.19 205.16 129.2 233.12 129.2 246.71" style="fill:#fff;opacity:0.7000000000000001"></polygon><path d="M164.51,196.53c1.57-.9,2.84-.17,2.84,1.64a6.28,6.28,0,0,1-2.84,4.92c-1.57.9-2.84.17-2.84-1.64A6.28,6.28,0,0,1,164.51,196.53Z" style="fill:#fff;opacity:0.7000000000000001"></path></g></g></svg>