<?xml version="1.0" encoding="iso-8859-1"?>
<!-- Generator: Adobe Illustrator 19.0.0, SVG Export Plug-In . SVG Version: 6.00 Build 0)  -->
<svg version="1.1" id="Capa_1" xmlns="http://www.w3.org/2000/svg" xmlns:xlink="http://www.w3.org/1999/xlink" x="0px" y="0px"
	 viewBox="0 0 512 512" style="enable-background:new 0 0 512 512;" xml:space="preserve">
<rect x="7.5" y="434" style="fill:#BE6454;" width="497" height="30"/>
<rect x="474.5" y="434" style="fill:#A35D54;" width="30" height="30"/>
<path style="fill:#FFE9B5;" d="M421,404H91c-5.523,0-10-4.477-10-10v-60c0-5.523,4.477-10,10-10h330c5.523,0,10,4.477,10,10v60
	C431,399.523,426.523,404,421,404z"/>
<path style="fill:#FFD467;" d="M421,324h-30c5.523,0,10,4.477,10,10v60c0,5.523-4.477,10-10,10h30c5.523,0,10-4.477,10-10v-60
	C431,328.477,426.523,324,421,324z"/>
<path style="fill:#FFB06A;" d="M431,364H81v-30c0-5.523,4.477-10,10-10h330c5.523,0,10,4.477,10,10V364z"/>
<path style="fill:#FF9242;" d="M421,324h-30c5.523,0,10,4.477,10,10v30h30v-30C431,328.477,426.523,324,421,324z"/>
<g>
	<rect x="97" y="404" style="fill:#4C6B7F;" width="32" height="30"/>
	<rect x="383" y="404" style="fill:#4C6B7F;" width="32" height="30"/>
</g>
<rect x="100" y="246" style="fill:#FF9242;" width="312" height="78"/>
<rect x="382" y="246" style="fill:#E27C37;" width="30" height="78"/>
<g>
	<path style="fill:#FFE9B5;" d="M224.581,324h-70c-11.046,0-20-8.954-20-20l0,0c0-11.046,8.954-20,20-20h70c11.046,0,20,8.954,20,20
		l0,0C244.581,315.046,235.627,324,224.581,324z"/>
	<path style="fill:#FFE9B5;" d="M358.432,324h-70c-11.046,0-20-8.954-20-20l0,0c0-11.046,8.954-20,20-20h70c11.046,0,20,8.954,20,20
		l0,0C378.432,315.046,369.478,324,358.432,324z"/>
	<rect x="165" y="48" style="fill:#FFE9B5;" width="182" height="58"/>
</g>
<rect x="317" y="48" style="fill:#FFD467;" width="30" height="58"/>
<rect x="165" y="106" style="fill:#4C6B7F;" width="182" height="30"/>
<rect x="317" y="106" style="fill:#3B5366;" width="30" height="30"/>
<g>
	<rect x="18" y="156" style="fill:#FFD65C;" width="60" height="60"/>
	<rect x="434.97" y="156" style="fill:#FFD65C;" width="60" height="60"/>
</g>
<g>
	<rect x="464.97" y="156" style="fill:#FFB254;" width="30" height="60"/>
	<rect x="48.606" y="156" style="fill:#FFB254;" width="30" height="60"/>
</g>
<path d="M504.5,426.5h-31.43v-203h21.896c4.142,0,7.5-3.357,7.5-7.5v-60c0-4.143-3.358-7.5-7.5-7.5h-60c-4.142,0-7.5,3.357-7.5,7.5
	v60c0,4.143,3.358,7.5,7.5,7.5h23.104v203H422.5v-15.076c8.948-0.765,16-8.281,16-17.424l0,0v-60c0-9.649-7.851-17.5-17.5-17.5h-1.5
	V246c0-4.143-3.358-7.5-7.5-7.5H160c-4.142,0-7.5,3.357-7.5,7.5s3.358,7.5,7.5,7.5h244.5v63h-21.586c1.924-3.753,3.018-8,3.018-12.5
	c0-15.163-12.336-27.5-27.5-27.5h-70c-15.164,0-27.5,12.337-27.5,27.5c0,4.5,1.093,8.747,3.018,12.5h-14.886
	c1.924-3.753,3.018-8,3.018-12.5c0-15.163-12.336-27.5-27.5-27.5h-70c-15.164,0-27.5,12.337-27.5,27.5c0,4.5,1.093,8.747,3.018,12.5
	h-22.6v-63H128c4.142,0,7.5-3.357,7.5-7.5s-3.358-7.5-7.5-7.5h-28c-4.142,0-7.5,3.357-7.5,7.5v70.5H91
	c-9.649,0-17.5,7.851-17.5,17.5v60l0,0c0,9.143,7.052,16.659,16,17.424V426.5H56.11v-203H78c4.142,0,7.5-3.357,7.5-7.5v-60
	c0-4.143-3.358-7.5-7.5-7.5H18c-4.142,0-7.5,3.357-7.5,7.5v60c0,4.143,3.358,7.5,7.5,7.5h23.11v203H7.5c-4.142,0-7.5,3.357-7.5,7.5
	v30c0,4.143,3.358,7.5,7.5,7.5h497c4.142,0,7.5-3.357,7.5-7.5v-30C512,429.857,508.642,426.5,504.5,426.5z M442.466,163.5h45v45h-45
	V163.5z M25.5,163.5h45v45h-45V163.5z M390.5,411.5h17v15h-17V411.5z M275.932,304c0-6.893,5.607-12.5,12.5-12.5h70
	c6.893,0,12.5,5.607,12.5,12.5s-5.607,12.5-12.5,12.5h-70C281.54,316.5,275.932,310.893,275.932,304z M142.082,304
	c0-6.893,5.607-12.5,12.5-12.5h70c6.893,0,12.5,5.607,12.5,12.5s-5.607,12.5-12.5,12.5h-70
	C147.689,316.5,142.082,310.893,142.082,304z M88.5,334c0-1.379,1.122-2.5,2.5-2.5l0,0l0,0l0,0l0,0h330l0,0l0,0
	c1.378,0,2.5,1.121,2.5,2.5v22.5h-335V334z M88.5,394v-22.5h335V394c0,1.379-1.122,2.5-2.5,2.5h-6h-32h-31
	c-4.142,0-7.5,3.357-7.5,7.5s3.358,7.5,7.5,7.5h23.5v15h-239v-15H320c4.142,0,7.5-3.357,7.5-7.5s-3.358-7.5-7.5-7.5H129H97h-6
	C89.622,396.5,88.5,395.379,88.5,394z M104.5,411.5h17v15h-17V411.5z M497,441.5v15H15v-15H497"/>
<path d="M165,143.5h182c4.142,0,7.5-3.357,7.5-7.5l0,0V48c0-4.143-3.358-7.5-7.5-7.5h-26.5c-4.142,0-7.5,3.357-7.5,7.5
	s3.358,7.5,7.5,7.5h19v43h-167v-43h115c4.142,0,7.5-3.357,7.5-7.5s-3.358-7.5-7.5-7.5H165c-4.142,0-7.5,3.357-7.5,7.5v88l0,0
	C157.5,140.143,160.858,143.5,165,143.5z M339.5,113.5v15h-167v-15H339.5z"/>
<path d="M189.582,73.261c-4.142,0-7.5,3.357-7.5,7.5s3.358,7.5,7.5,7.5H213c4.142,0,7.5-3.357,7.5-7.5s-3.358-7.5-7.5-7.5H189.582z"
	/>
<g>
</g>
<g>
</g>
<g>
</g>
<g>
</g>
<g>
</g>
<g>
</g>
<g>
</g>
<g>
</g>
<g>
</g>
<g>
</g>
<g>
</g>
<g>
</g>
<g>
</g>
<g>
</g>
<g>
</g>
</svg>
