<svg height="512" viewBox="0 0 58 58" width="512" xmlns="http://www.w3.org/2000/svg"><g id="Page-1" fill="none" fill-rule="evenodd"><g id="030---Paving" fill-rule="nonzero"><path id="Shape" d="m28.471 0h-14.161c-.6022881.00053602-1.1682583.28809698-1.5238214.77423079-.3555631.4861338-.45814 1.11262528-.2761786 1.68676921l3.545 11.218c.2480017.7855507.976232 1.3199908 1.8 1.321h4.145c.4106661.0025708.8111719.1279465 1.15.36l8.992 6.3c.3177411.2221725.6962898.3409055 1.084.34h5.883c1.0443705 0 1.891-.8466295 1.891-1.891v-8.4c-.0001481-.5280138-.2209348-1.0319442-.609-1.39l-10.638-9.819c-.3493766-.32175197-.8070386-.50024728-1.282-.5z" fill="#cf976a"/><path id="Shape" d="m56.109 0h-16.156c-.7784469.00007555-1.4773098.47718463-1.7608837 1.20214351-.2835738.72495889-.0939104 1.54962265.4778837 2.07785649l4.062 3.752c.4886305.45162967 1.1787473.61304941 1.817.425l12.094-3.557c.8049075-.23694156 1.3574279-.97594263 1.357-1.815v-.194c0-.50152438-.1992298-.98250763-.5538611-1.33713892s-.8356145-.55386108-1.3371389-.55386108z" fill="#a59078"/><path id="Shape" d="m55.575 8.384-9.219 2.716c-.8039567.2374888-1.3557836.9756998-1.356 1.814v7.2c.0027563 1.0424173.848579 1.8860036 1.891 1.886h1.951c.052 0 .104-.002.156-.006l7.267-.6c.980705-.081181 1.7352319-.9009408 1.735-1.885v-9.309c.0006196-.59638051-.2801334-1.15810631-.7574978-1.51558826-.4773644-.35748194-1.0953944-.46882421-1.6675022-.30041174z" fill="#cb8252"/><path id="Shape" d="m55.953 25.43-4.11.342c-.784119.0649784-1.4458476.6091815-1.661 1.366l-2.627 9.213c-.1878607.6596308-.0042318 1.3692799.48 1.855l6.737 6.743c.5408173.540705 1.354072.7024366 2.0606168.409794.7065448-.2926427 1.1672708-.9820422 1.1673832-1.746794v-16.3c-.0007134-.5281959-.2223077-1.0320202-.6111412-1.3895115-.3888334-.3574912-.9094628-.5360631-1.4358588-.4924885z" fill="#cbb292"/><path id="Shape" d="m6.145 0h-4.254c-1.04437046 0-1.891.84662954-1.891 1.891v11.218c0 1.0443705.84662954 1.891 1.891 1.891h7.8c.6022881-.000536 1.1682583-.288097 1.5238214-.7742308s.45814-1.1126253.2761786-1.6867692l-3.544-11.218c-.24822435-.78625389-.97749379-1.32086262-1.802-1.321z" fill="#cbb292"/><path id="Shape" d="m1.891 19c-1.04437046 0-1.891.8466295-1.891 1.891v19.327c.00009459.7160779.40465824 1.3706757 1.04509545 1.6910002.6404372.3203244 1.40687189.2514193 1.97990455-.1780002l3.754-2.815c.59697218-.4475935.87474242-1.2045076.709-1.932l-3.753-16.512c-.19563824-.860993-.96105988-1.472002-1.844-1.472z" fill="#a59078"/><path id="Shape" d="m9.719 41.71-8.963 6.723c-.47591304.3569348-.756.9171087-.756 1.512v6.164c0 1.0443705.84662954 1.891 1.891 1.891h9.7c.6321508.0000567 1.2224741-.3159333 1.573-.842l5.072-7.612c.3378502-.5057637.4122513-1.1430097.2-1.713l-1.582-4.215c-.2181924-.5811538-.7078537-1.0181111-1.31-1.169l-4.224-1.06c-.5547566-.1403495-1.1432272-.0223613-1.601.321z" fill="#cf976a"/><path id="Shape" d="m30.109 51h-7.027c-.6319164-.0001007-1.222121.3154505-1.573.841l-2.147 3.219c-.3874791.5799256-.4240774 1.3261166-.0952085 1.9411768.3288689.6150601.9697462.9990092 1.6672085.9988232h9.175c1.0443705 0 1.891-.8466295 1.891-1.891v-3.218c0-1.0443705-.8466295-1.891-1.891-1.891z" fill="#cbb292"/><path id="Shape" d="m43.664 42.167-7.11 7.109c-.3546482.3545745-.5539263.8355038-.554 1.337v5.5c.0022058 1.042808.8481896 1.8870023 1.891 1.887h18.218c1.0443705 0 1.891-.8466295 1.891-1.891v-1.509c.0001916-.5018427-.1991067-.9831805-.554-1.338l-11.109-11.1c-.3549822-.3540688-.8361621-.5524903-1.3375364-.5515524-.5013743.0009378-.9818085.2011581-1.3354636.5565524z" fill="#cf976a"/><path id="Shape" d="m20.774 19h-10.9c-.57511716-.0000784-1.11897898.2617119-1.47765816.7112773-.35867919.4495653-.49314566 1.0379857-.36534184 1.5987227l3.387 14.915c.1581047.6959053.6945148 1.2435309 1.387 1.416l3.293.821c.7075903.1760233 1.4533609-.0702327 1.917-.633l9.765-11.851c.3350749-.4069048.4851058-.9351992.4139115-1.4574808-.0711944-.5222817-.3571518-.9911447-.7889115-1.2935192l-5.547-3.885c-.3175063-.2228821-.696074-.3423195-1.084-.342z" fill="#cb8252"/><path id="Shape" d="m43.843 26h-10.01c-.5651764-.0000535-1.1007499.2526931-1.46.689l-11.4 13.848c-.4295497.5218269-.5477496 1.2333141-.31 1.866l1.266 3.371c.2771618.7377981.98286 1.2263278 1.771 1.226h8.687c.5014962-.0000737.9824255-.1993518 1.337-.554l9.15-9.15c.2267946-.2273132.3922797-.5083971.481-.817l2.306-8.069c.1628139-.5704395.0485041-1.1842216-.3087468-1.6578051-.357251-.4735835-.9160336-.7520745-1.5092532-.7521949z" fill="#a59078"/></g></g></svg>